<?xml version="1.0" encoding="UTF-8"?>
<svg id="Layer_2" xmlns="http://www.w3.org/2000/svg" xmlns:xlink="http://www.w3.org/1999/xlink" viewBox="0 0 746.64 148.73">
  <defs>
    <style>
      .cls-1 {
        fill: url(#_Безымянный_градиент_22);
      }
    </style>
    <linearGradient id="_Безымянный_градиент_22" data-name="Безымянный градиент 22" x1="24.79" y1="24.79" x2="131.23" y2="131.23" gradientUnits="userSpaceOnUse">
      <stop offset="0" stop-color="#9d0033"/>
      <stop offset=".28" stop-color="#bd0036"/>
      <stop offset=".55" stop-color="#d70039"/>
      <stop offset=".8" stop-color="#e6003b"/>
      <stop offset="1" stop-color="#ec003c"/>
    </linearGradient>
  </defs>
  <g id="_Слой_1" data-name="Слой_1">
    <g>
      <path class="cls-1" d="M131.2,46.57L84.64,0l-16.84,16.84,12.82,12.82c-8.7,1.21-17.19,4.32-24.77,9.36l-22.64-22.64-16.84,16.84,22.64,22.64,17.43,17.43,30.44,30.44,16.84-16.84-30.44-30.44c13.4-6.45,29.99-4.12,41.09,6.97l.02.02h0c14.05,14.05,14.05,36.91,0,50.96-14.05,14.05-36.91,14.05-50.96,0h0s-.05-.05-.05-.05c-8.6-8.63-11.92-20.57-9.94-31.75l-18.84-18.84c-2.49,5.39-4.14,11.08-4.94,16.87l-12.82-12.82L0,84.64l46.5,46.5s.06.06.09.1c23.34,23.34,61.31,23.33,84.64,0,23.34-23.34,23.34-61.3,0-84.64,0,0-.02-.02-.02-.02Z"/>
      <g>
        <path d="M228.16,39.36h-44.34v94.55h42.82c24.75,0,44.49-11.26,44.49-36.01v-22.38c0-24.75-17.8-36.16-42.97-36.16ZM250.13,94.27c0,15.99-10.99,22.4-23.5,22.4h-21.96v-59.93h23.48c12.38,0,21.98,6.96,21.98,22.38v15.15Z"/>
        <path d="M359.55,39.36v57.97c0,13.9-11.96,20.72-25.17,20.72s-25.02-6.52-25.02-20.72v-57.97h-20.99v60.33c0,23.92,20.72,35.6,46.29,35.6s46.16-11.83,46.16-35.6v-60.33h-21.27Z"/>
        <path d="M472.45,39.36v66.45l-52.69-66.45h-20.02v94.55h19.62v-66.87l52.68,66.87h20.02V39.36h-19.6Z"/>
        <polygon points="607.33 133.91 577.99 133.91 545.26 103.63 558.73 91.05 607.33 133.91"/>
        <polygon points="601.76 39.36 532.11 104.42 532.11 133.91 510.97 133.91 510.97 39.36 532.11 39.36 532.11 78.44 573.96 39.36 601.76 39.36"/>
        <path d="M620.26,39.36v94.55h21.14V39.36h-21.14Z"/>
        <path d="M654.18,39.36v17.53h35.31v77.02h21.14V56.89h36.01v-17.53h-92.46Z"/>
      </g>
    </g>
  </g>
</svg>