<svg xmlns="http://www.w3.org/2000/svg" xmlns:xlink="http://www.w3.org/1999/xlink" width="432" zoomAndPan="magnify" viewBox="0 0 324 323.999988" height="432" preserveAspectRatio="xMidYMid meet" version="1.0"><defs><clipPath id="b725072445"><path d="M 277.539062 252.222656 L 283.617188 252.222656 L 283.617188 261.632812 L 277.539062 261.632812 Z M 277.539062 252.222656 " clip-rule="nonzero"/></clipPath></defs><path fill="#ffffff" d="M 162 0 C 72.550781 0 0 72.550781 0 162 C 0 251.449219 72.550781 324 162 324 C 251.449219 324 324 251.449219 324 162 C 324 72.550781 251.449219 0 162 0 Z M 162 18 C 241.75 18 306 82.25 306 162 C 306 241.75 241.75 306 162 306 C 82.25 306 18 241.75 18 162 C 18 82.25 82.25 18 162 18 Z M 153 63 L 153 82.792969 C 138.601562 84.59375 112.5 97.191406 112.5 127.792969 C 112.5 185.394531 196.207031 155.695312 196.207031 198.894531 C 196.207031 213.296875 189.898438 226.792969 162 226.792969 C 134.101562 226.792969 126 205.199219 126 193.5 L 108 193.5 C 110.699219 232.199219 137.699219 241.195312 153 243.894531 L 153 261 L 171 261 L 171 243.894531 C 184.5 242.996094 216 233.101562 216 197.101562 C 216 167.402344 191.691406 159.296875 168.292969 153.894531 C 149.394531 149.394531 132.292969 144.898438 132.292969 126 C 132.292969 117.898438 135.894531 99.894531 162.894531 99.894531 C 181.796875 99.894531 190.800781 111.601562 193.5 126 L 211.5 126 C 206.101562 106.199219 197.101562 88.207031 171 83.707031 L 171 63 Z M 153 63 " fill-opacity="1" fill-rule="nonzero"/><g clip-path="url(#b725072445)"><path fill="#ffffff" d="M 277.539062 252.222656 L 283.617188 252.222656 L 283.617188 261.621094 L 277.539062 261.621094 Z M 277.539062 252.222656 " fill-opacity="1" fill-rule="nonzero"/></g></svg>