<svg id="b" xmlns="http://www.w3.org/2000/svg" width="334.464" height="318.13" viewBox="0 0 334.464 318.13"><defs><style>.g{fill:#211715;}.g,.h,.i{stroke-width:0px;}.h{fill:#fff;}.i{fill:#fcdc4a;}</style></defs><g id="c"><g id="d"><path class="h" d="M310.692,244.854c4.074,7.909,6.68,17.274,8.935,25.967,2.111,8.139,3.108,16.833.755,24.906-3.685,12.642-14.753,19.457-27.581,16.437-5.835-1.374-11.005-4.27-15.188-8.26v11.915s-157.215-.002-157.215-.002c-.2-4.65-.41-9.47-.62-14.33-.2-4.622-.402-9.286-.601-13.891l-1.019.85c-6.223,5.191-16.248,14.076-24.44,17.785-8.882,4.022-19.517,4.584-30.16-.732-12.433-6.21-17.502-19.383-20.375-32.981-4.028-19.067-4.621-40.029-6.417-58.718-.09-.94.484-1.806,1.385-2.09,6.734-2.129,30.331-6.606,38.488-6.979,1.004-.046,1.887.658,2.067,1.646,2.146,11.758,4.501,22.553,7.107,34.209,3.829-12.701,6.439-21.356,6.439-21.356l3.038-10.077c1.342-3.998,3.022-7.87,5.176-11.506,5.584-9.423,13.903-14.935,23.693-19.35,7.901-3.225,15.178-6.405,23-9.748.707-.302,1.526-.226,2.147.227,8.899,7.489,24.941,11.998,42.53,12.042,16.045.04,37.826-6.357,45.661-12.777,8.487,2.89,13.668,4.094,21.969,7.482,6.794,3.068,11.822,5.357,17.259,10,10.013,8.773,15.372,18.389,20.971,30.504l12.997,28.828Z"></path><path class="h" d="M245.229,81.628c-.427.261-.834.571-1.211.933,0,0,7.814-44.198-49.963-44.198s-50.598,44.198-50.598,44.198c-1.624-1.56-3.811-2.146-5.682-2.08-4.073.144-5.806,2.347-6.552,3.64-2.226,3.861-2.132,10.976-.638,15.378,1.058,3.118,2.792,7.887,6.972,11.307,1.853,1.516,4.646,2.475,7.229,1.812,1.893,6.43,5.321,14.192,11.342,21.398,4.016,4.806,8.205,8.554,12.775,11.161,0,3.118,0,7.431,0,7.431,0,1.378,0,2.881-.509,4.222-.683,1.763-1.602,3.29-3.079,4.482-3.129,2.521-6.345,3.725-10.306,5.215l-5.398,2.125c8.943,7.383,24.872,11.821,42.323,11.865,15.6.039,36.625-6.007,44.979-12.241l-4.431-1.748c-3.961-1.49-7.177-2.694-10.306-5.215-1.478-1.192-2.396-2.719-3.079-4.482-.509-1.341-.509-2.843-.509-4.222,0,0,0-3.864,0-7.364,11.281-6.728,20.075-21.932,21.713-26.379.58-1.209,1.53-3.698,2.301-6.239l.639.108c2.424.409,4.958-.519,6.681-1.928,4.18-3.42,5.913-8.189,6.972-11.307,1.494-4.402,1.589-11.517-.638-15.378-.746-1.294-2.479-3.497-6.552-3.64-1.437-.051-3.06.283-4.471,1.147Z"></path><path class="h" d="M40.869,203.067c.69,2.043,1.418,5.408,1.746,7.461,8.366-2.016,23.077-4.735,31.141-5.569-.013-.114-.015-.172-.015-.172-.111-2.667-.667-6.667-.667-9.222l-.109-1.266c3.07-2.583,4.604-5.597,6.221-9.66,2.063-5.184,3.92-10.441,4.978-15.911.826-4.271,1.386-7.847,1.429-10.968.018-1.276-.579-3.098-1.677-3.797-.798-.508-3.222-.341-4.06.097-1.475.77-2.774,3.605-4.1,6.558-1.268,2.824-2.264,5.213-4.293,7.551-1.516,1.748-4.879,2.527-7.26.548-1.4-1.164-2.115-3.528-2.325-5.337-.286-2.462-.434-4.36.638-6.594s3.558-3.794,5.419-3.511c1.424.216,4.551,1.175,5.99,1.116,3.254-.135,4.744-3.53,4.165-5.667-.44-1.621-5.146-4.172-7.242-5.194-2.363-1.152-4.655-2.614-7.259-2.41-3.119.245-6.146,2.282-8.157,4.668-1.843,2.187-3.043,3.383-4.618,6.13-.643,1.058-1.158,2.079-1.802,3.137-.205.336-.421.657-.661.88-.289.267-.783.265-1.074,0-.102-.093-.76-1.025-.965-1.38-3.498-5.694-6.535-10.879-10.906-17.397-1.322-1.972-6.218-9.165-7.852-10.889s-3.146-2.472-5.519-2.37c-.491.021-2.053.804-2.611,1.222-.608.456-.917,1.309-1.056,2.056-.328,1.771.502,4.771,1.501,6.362.374.595,5.258,9.845,6.795,12.36.277.453,6.704,10.556,9.778,15.111-4.643-5.963-13.725-17.389-15.935-20.02-3.047-3.628-5.076-5.303-7.269-5.406-3.02-.141-5.435,2.024-5.202,5.039s3.144,6.136,4.868,8.62c5.643,8.132,8.448,11.755,14.209,19.919-5.817-4.297-10.984-7.909-17.653-12.355-1.385-.923-4.292-1.361-5.556-.278-.757.649-1.574,1.577-1.593,2.574-.037,1.963.956,3.536,2.278,5.389s3.519,3.63,5.556,5.63c4.461,4.38,7.758,6.639,12.481,12.407,7.001,8.55,15.143,17.089,18.24,20.539"></path><path class="h" d="M259.949,170.845c-14.411,1.655-26.386,8.242-35.809,23.72-1.96,3.22-4.129,9.784-9.088,8.392-2.017-.566-2.904-2.302-3.414-4.24s.035-5.379.741-7.259c7.704-20.519,25.398-33.08,47.407-33.852,22.492-.789,40,5.926,51.481,26.074.966,1.695,2.604,6.395,2.444,8.333-.159,1.938-.628,3.45-2.411,4.413-4.788,2.584-8.414-4.238-10.476-7.127-9.615-13.473-25.833-20.18-40.875-18.453Z"></path><path class="h" d="M255.741,142.027c5.071,4.018,3.596,10.113,1.938,12.484-2.767,3.957-9.211,4.631-12.618,2.044-4.785-3.633-3.748-9.13-1.018-12.915,2.323-3.221,8.16-4.414,11.697-1.612Z"></path><path class="h" d="M274.217,141.046c5.071,4.018,3.596,10.113,1.938,12.484-2.767,3.957-9.211,4.631-12.618,2.044-4.785-3.633-3.748-9.13-1.018-12.915,2.323-3.221,8.16-4.414,11.697-1.612Z"></path><path class="h" d="M272.019,222.743c.294.136.598.297.912.483-2.08-2.416-2.777-5.541-1.182-7.537,1.056-1.321,3.189-2.091,4.555-1.993,2.228.16,6.742.792,8.708,1.809-2.517-1.345-4.017-4.896-2.396-7.245.646-.936,3.553-2.367,6.306-1.97,2.146.309,4.287.883,7.5,2.809,4.241,2.544,8.114,5.239,11.749,8.907,3.263,3.292,6.081,5.886,6.432,10.508.194,2.562-.223,5.309-1.871,7.28-.664.794-1.517,1.452-1.987,2.374-1.032,2.025.112,4.455-.023,6.724-.168,2.816-2.266,5.091-4.26,7.086-4.058,4.061-8.235,8.086-13.142,11.064-.394.239-.793.471-1.198.696.164.424.27.699.27.699.852,1.616,2.529,4.71,2.583,7.476.014.727-1.164,3.53-2.767,6.154-1.313,2.15-5.185,8.205-7.422,10.744-2.361,2.679-5.656,5.176-9.198,4.72-3.2-.411-5.332-2.804-6.708-5.723-2.85-6.046-3.947-10.718-5.295-17.324-.268-1.311-.214-3.523-.172-4.86.1-3.179,3.219-9.436,5.622-11.519,0,0,.49-.562,1.146-1.314-1.728-2.697-3.357-5.464-5.041-8.307-1.16-2.377-2.562-5.616-2.366-7.227.179-1.464.633-2.972,1.704-3.986s2.887-1.341,4.028-.407c-1.341-1.132-2.534-2.532-3.023-4.218s-.684-3.85.612-5.034c1.544-1.411,3.39-2.043,5.926-.87Z"></path><g id="e"><path class="i" d="M244.018,82.561c1.624-1.56,3.811-2.146,5.682-2.08.84.03,1.58.147,2.232.325,1.883-7.434,2.686-12.994,2.397-19.812-1.005-23.785-12.992-38.559-24.573-46.919-9.848-7.095-21.349-11.658-36.165-11.658-4.061,0-7.947.351-11.651,1.02-9.23,1.667-17.331,5.309-24.208,10.423-11.189,8.321-23.86,23.144-24.874,47.134-.253,5.994.556,12.903,2.464,19.879.703-.218,1.515-.36,2.451-.392,1.872-.066,4.059.52,5.682,2.08l1.064,1.022c3.486-3.885,6.973-7.77,6.973-7.77,6.031-6.72,16.676-16.85,24.145-20.768.876-.459,2.001.162,2.356,1.626.343,1.414.341,2.488.23,3.504-.169,1.543,1.328,2.666,2.601,1.959,5.333-2.962,14.834-8.924,21.572-11.764l9.991,1.227c3.216,1.398,5.663,2.742,9.202,5.787,6.065,5.218,11.879,12.377,14.454,18.857l7.975,6.319Z" style="fill: rgb(236, 0, 60);"></path><path class="i" d="M265.281,244.725c-.048-.081-.095-.159-.143-.241-1.16-2.377-2.562-5.616-2.366-7.227.179-1.464.633-2.972,1.704-3.986,1.071-1.013,2.887-1.341,4.028-.407-1.341-1.132-2.534-2.532-3.023-4.218-.489-1.686-.684-3.85.612-5.034,1.544-1.411,3.39-2.043,5.926-.87.294.136.598.297.911.483-2.08-2.416-2.777-5.542-1.182-7.537,1.056-1.321,3.189-2.091,4.555-1.993,2.228.16,6.742.792,8.708,1.809-2.517-1.345-4.017-4.896-2.396-7.245.646-.936,3.553-2.367,6.306-1.971,2.146.309,4.287.883,7.5,2.81,4.241,2.544,8.114,5.239,11.749,8.907,1.827,1.844,3.515,3.469,4.708,5.353.299-.711.574-1.432.791-2.175,2.348-8.014-.478-16.566-3.647-24.276-4.156.893-7.323-4.983-9.197-7.609-9.615-13.473-25.832-20.18-40.875-18.453-14.411,1.655-26.386,8.242-35.809,23.72-1.83,3.006-3.841,8.925-8.134,8.567-1.712,3.017-2.004,7.814-2.301,11.25-.316,3.656-.162,7.389.913,10.905.151.495.321.987.51,1.472,3.878,9.958,14.816,15.533,24.808,17.306,7.735,1.365,15.652,1.445,23.465.807.626-.051,1.253-.099,1.88-.147Z" style="fill: rgb(236, 0, 60);"></path></g></g><g id="f"><path class="g" d="M228.344,10.199c-17.946-11.663-41.483-13.444-61.043-4.722-15.787,7.039-28.349,21.188-33.703,37.579-3.979,12.183-4.002,25.185-.831,37.546.767,2.99,5.398,1.723,4.629-1.276-2.682-10.455-2.908-21.257-.135-31.721,2.138-8.068,6.035-15.641,11.436-22.014,5.019-5.922,10.786-10.695,17.586-14.294,8.803-4.659,18.751-6.658,28.669-6.468,11.11.212,21.661,3.464,30.971,9.514,2.598,1.688,5.006-2.466,2.423-4.145h0Z"></path><path class="g" d="M254.456,80.603c1.262-5.151,2.199-10.392,2.317-15.706.114-5.12-.401-10.294-1.416-15.312-1.703-8.423-5.149-16.541-10.206-23.5-2.508-3.451-5.341-6.638-8.5-9.505-2.283-2.072-5.687,1.312-3.394,3.394,5.334,4.843,9.715,10.577,12.874,17.06,3.915,8.032,5.752,17.032,5.851,25.939.062,5.563-.835,10.966-2.155,16.354-.735,3,3.893,4.28,4.629,1.276h0Z"></path><path class="g" d="M211.175,53.67c5.067,2.219,9.201,5.52,13.022,9.493s7.444,8.566,9.531,13.716c.487,1.2,1.598,2.048,2.952,1.676,1.138-.313,2.166-1.744,1.676-2.952-2.364-5.832-6.157-10.976-10.468-15.523-4.137-4.364-8.76-8.133-14.291-10.555-1.186-.52-2.576-.348-3.284.861-.595,1.018-.333,2.761.861,3.284h0Z"></path><path class="g" d="M153.189,77.51c5.958-6.62,12.547-13.096,19.929-18.12.798-.543,1.61-1.066,2.443-1.555.184-.108.996-.561.986-.575-.007-.012-.563-.041-.748-.05-.35-.018-.224-.587-.12.1.362,2.389-.334,5.054,1.978,6.668,2.198,1.535,4.281.301,6.286-.852,1.889-1.087,3.765-2.195,5.65-3.29,4.559-2.649,9.155-5.324,14.014-7.392,1.193-.508,1.456-2.266.861-3.284-.722-1.234-2.086-1.371-3.284-.861-4.326,1.841-8.437,4.176-12.506,6.52-1.969,1.134-3.927,2.287-5.892,3.429-.813.472-1.627.943-2.445,1.406-.124.07-.539.217-.611.343-.198.346.101-.256.584.014.069.038.489.408.297.513.029-.016.063-.979.066-1.037.117-2.509-.518-5.893-3.252-6.784-2.07-.675-3.963.745-5.627,1.813-3.996,2.565-7.68,5.646-11.202,8.82-3.779,3.405-7.399,6.999-10.802,10.781-2.062,2.291,1.322,5.696,3.394,3.394h0Z"></path><path class="g" d="M184.484,125.888c3.05,1.611,6.336,2.284,9.785,2.262,3.496-.023,7.04-.706,9.842-2.889,1.023-.797.837-2.557,0-3.394-1.01-1.01-2.368-.799-3.394,0,.718-.56.125-.107-.059.011-.198.127-.402.244-.61.353-.157.082-.89.381-.263.146-.28.105-.557.214-.842.306-.767.246-1.558.423-2.355.538.332-.048-.158.014-.268.025-.231.023-.462.042-.694.057-.557.036-1.116.05-1.674.047-.5-.003-1-.02-1.499-.054-.229-.016-.458-.034-.687-.057.002,0-.798-.107-.375-.042-.743-.115-1.48-.273-2.2-.488-.308-.092-.609-.203-.913-.307-.099-.034-.194-.086-.294-.115.6.172.208.093.041.014-.377-.178-.749-.363-1.118-.558-1.146-.605-2.61-.291-3.284.861-.634,1.084-.289,2.676.861,3.284h0Z"></path><path class="g" d="M193.123,102.74c.43,1.64.843,3.307,1.09,4.986l-.086-.638c.029.23.042.457.019.688l.086-.638c-.016.107-.04.207-.076.309l.242-.573c-.032.072-.065.134-.109.199l.375-.486c-.051.062-.1.11-.163.161l.486-.375c-.126.081-.259.146-.395.209l.573-.242c-.217.091-.433.157-.666.194l.638-.086c-.21.025-.415.023-.625-.001l.638.086c-.236-.033-.467-.09-.702-.122-.67-.09-1.239-.115-1.849.242-.498.291-.973.862-1.103,1.434-.14.614-.11,1.304.242,1.849.312.484.835,1.022,1.434,1.103.522.07,1.029.204,1.56.227.808.035,1.56-.21,2.282-.54.888-.406,1.58-1.196,1.817-2.153.2-.809.113-1.526-.024-2.336-.271-1.606-.643-3.198-1.056-4.774-.318-1.214-1.729-2.072-2.952-1.676-1.25.404-2.018,1.651-1.676,2.952h0Z"></path><path class="g" d="M166.505,88.662c-.833,2.706-.29,8.93,4.836,9.46,6.775-.041,7.136-7.566,4.855-11.104-1.867-2.897-7.358-4.102-9.691,1.644Z"></path><path class="g" d="M220.968,88.662c.833,2.706.29,8.93-4.836,9.46-6.775-.041-7.136-7.566-4.855-11.104,1.867-2.897,7.358-4.101,9.691,1.645Z"></path><path class="g" d="M145.153,80.864c-3.296-2.993-8.124-3.59-12.121-1.649-2.923,1.419-4.592,4.369-5.315,7.427-1.714,7.245.129,15.513,4.336,21.616,3.011,4.368,7.297,7.554,12.821,6.79,1.285-.178,1.987-1.82,1.676-2.952-.38-1.384-1.663-1.855-2.952-1.676-3.04.421-5.699-2.163-7.293-4.431-1.531-2.178-2.576-4.611-3.407-7.128-.928-2.807-1.161-5.805-.909-8.743.114-1.331.375-2.722.889-3.96.173-.416.399-.812.641-1.193.049-.078.359-.488.221-.319-.109.133.316-.328.417-.427,1.79-1.752,5.534-1.838,7.602.039,2.283,2.072,5.687-1.312,3.394-3.394h0Z"></path><path class="g" d="M245.715,84.258c1.907-1.731,5.08-1.854,7.184-.393.603.419.864.745,1.282,1.467.664,1.148.986,2.494,1.19,3.796.851,5.419-.645,11.151-3.492,15.783-1.63,2.651-4.504,5.992-8.002,5.508-1.282-.177-2.577.311-2.952,1.676-.308,1.121.384,2.774,1.676,2.952,9.04,1.25,14.26-7.653,16.653-15.06,1.213-3.753,1.38-7.9.8-11.781-.49-3.282-1.813-6.474-4.618-8.41-3.967-2.739-9.625-2.102-13.115,1.067-2.292,2.081,1.11,5.467,3.394,3.394h0Z"></path><path class="g" d="M241.232,108.297c-.759,3.699-2.155,7.216-3.473,10.503.281-.701-.206.434-.327.688-.245.512-.503,1.018-.769,1.521-.636,1.204-1.318,2.385-2.029,3.546-3.657,5.974-8.113,11.629-13.575,16.056-2.955,2.395-6.285,4.299-9.973,5.149-3.009.693-1.735,5.322,1.276,4.629,7.605-1.752,13.929-7.315,18.894-13.083,4.13-4.798,7.974-10.2,10.598-15.99.255-.562.48-1.137.719-1.706-.243.578-.073.188-.017.067.158-.343.3-.694.445-1.042.197-.473.387-.949.569-1.428.942-2.481,1.757-5.032,2.29-7.634.26-1.269-.368-2.593-1.676-2.952-1.187-.326-2.691.401-2.952,1.676h0Z"></path><path class="g" d="M141.469,109.394c1.673,7.391,4.674,14.552,8.875,20.864,4.526,6.801,10.471,13.166,17.665,17.171,3.693,2.056,7.727,3.449,11.907,4.065,1.281.189,2.579-.319,2.952-1.676.311-1.13-.386-2.762-1.676-2.952-14.935-2.202-26.12-15.148-31.79-28.417-1.422-3.327-2.506-6.805-3.305-10.331-.682-3.012-5.311-1.737-4.629,1.276h0Z"></path><path class="g" d="M166.501,147.319v4.698c0,1.552.073,3.065-.567,4.513-1.235,2.798-3.863,4.351-6.521,5.631-3.365,1.621-6.993,2.819-10.471,4.188-1.205.474-2.046,1.607-1.676,2.952.316,1.148,1.739,2.154,2.952,1.676,4.169-1.641,8.561-3.045,12.527-5.129,3.292-1.729,6.105-4.019,7.596-7.499,1.461-3.409.96-7.401.96-11.031,0-3.089-4.8-3.094-4.8,0h0Z"></path><path class="g" d="M216.188,146.156c0,4.863-.746,10.238,2.163,14.464,2.946,4.28,8.253,6.245,12.919,8,1.213.457,2.631-.508,2.952-1.676.37-1.347-.458-2.494-1.676-2.952-1.993-.75-3.981-1.509-5.85-2.539-1.611-.888-3.37-1.959-4.367-3.506-1.181-1.832-1.341-3.595-1.341-5.733,0-2.019,0-4.038,0-6.058,0-3.089-4.8-3.094-4.8,0h0Z"></path><path class="g" d="M114.377,232.686c.912,19.483,1.709,38.973,2.553,58.46.356,8.223.713,16.447,1.067,24.67.132,3.077,4.933,3.094,4.8,0-1.087-25.267-2.185-50.534-3.295-75.8-.107-2.443-.211-4.887-.325-7.33-.144-3.076-4.945-3.093-4.8,0h0Z"></path><path class="g" d="M94.562,219.864c1.644-5.446,3.053-11.036,5.454-16.212,2.343-5.049,5.411-9.624,9.515-13.408,4.153-3.83,9.089-6.705,14.176-9.109,5.595-2.645,11.436-4.843,17.125-7.284,1.469-.63,2.937-1.261,4.405-1.891.594-.255,1.189-.51,1.783-.764.36-.154.747-.387,1.138-.453-.273.046-.454-.277-.077.119,1.436,1.508,3.627,2.682,5.424,3.7,9.144,5.178,19.826,7.455,30.208,8.313,12.992,1.074,26.003-.845,38.382-4.844,2.927-.946,1.675-5.582-1.276-4.629-11.128,3.595-22.73,5.508-34.431,4.857-10.347-.575-21.189-2.635-30.313-7.759-1.789-1.005-3.469-2.142-5.07-3.421-2.909-2.322-6.187-.124-9.076,1.116-5.822,2.499-11.64,5.007-17.5,7.415-10.867,4.464-20.734,11.422-26.6,21.804-3.755,6.646-5.707,13.928-7.895,21.175-.895,2.964,3.737,4.23,4.629,1.276h0Z"></path><path class="g" d="M38.554,203.705c.772,2.306,1.282,4.723,1.689,7.118.095.559.633,1.159,1.103,1.434.514.301,1.273.429,1.849.242.581-.188,1.141-.548,1.434-1.103.318-.603.356-1.18.242-1.849-.408-2.395-.917-4.812-1.689-7.118-.198-.593-.553-1.113-1.103-1.434-.514-.301-1.273-.429-1.849-.242-1.182.383-2.103,1.678-1.676,2.952h0Z"></path><path class="g" d="M91.67,255.776c-2.228-10.02-4.525-20.025-6.669-30.063-1.042-4.878-2.045-9.765-2.986-14.663-.226-1.176-.448-2.352-.667-3.529-.229-1.234-.357-2.455-1.151-3.476-1.261-1.623-3.06-1.777-4.945-1.625-6.49.522-12.956,1.701-19.351,2.886-5.923,1.098-11.927,2.185-17.714,3.884-2.117.621-3.818,2.061-3.824,4.436s.429,4.846.623,7.225c.421,5.152.789,10.309,1.195,15.462.817,10.377,1.781,20.763,3.569,31.025,1.486,8.527,3.483,17.153,7.54,24.867s10.222,13.535,18.289,16.816c9.229,3.754,19.481,3.53,28.606-.39,7.975-3.427,14.855-9.402,21.441-14.93,1.411-1.184,2.815-2.377,4.229-3.557.996-.831.859-2.535,0-3.394-.985-.985-2.396-.833-3.394,0-6.075,5.074-12.039,10.362-18.767,14.573-7.055,4.416-15.257,6.69-23.575,5.197-8.104-1.454-15.408-5.684-20.124-12.492-4.341-6.266-6.631-13.671-8.259-21.046-4.147-18.784-4.644-38.125-6.385-57.217-.044-.482-.022-1.056-.142-1.529.098.385.03-.423-.076-.48.131.071-.325.295-.343.269.027.041,1.143-.339,1.263-.373,1.1-.307,2.209-.583,3.32-.848,2.902-.693,5.824-1.309,8.749-1.894,6.265-1.252,13.074-2.486,19.087-3.253,1.244-.159,2.491-.303,3.741-.411.437-.038.915-.012,1.343-.098.532-.106.195.109.111-.183.096.331.126.8.194,1.166.846,4.582,1.749,9.154,2.694,13.717,1.929,9.31,4.03,18.582,6.11,27.859.549,2.449,1.097,4.897,1.642,7.347.67,3.014,5.299,1.739,4.629-1.276h0Z"></path><path class="g" d="M308.62,246.065c3.381,6.622,5.569,13.776,7.512,20.929,1.979,7.287,3.732,14.628,3.053,22.239-.526,5.889-2.722,11.784-7.033,15.944-3.623,3.495-8.485,5.319-13.498,5.296-7.182-.032-14.181-3.403-19.343-8.268-2.247-2.118-5.648,1.27-3.394,3.394,9.611,9.058,25.54,13.639,36.994,5.167,5.321-3.935,8.771-9.761,10.247-16.174,1.914-8.31.741-16.898-1.38-25.043-2.305-8.85-4.837-17.731-9.012-25.908-1.405-2.752-5.548-.326-4.145,2.423h0Z"></path><path class="g" d="M42.566,201.37c-3.144-3.496-6.373-6.914-9.512-10.414-4.237-4.723-8.094-9.846-12.527-14.381-3.744-3.831-7.859-7.317-11.729-11.021-.973-.931-1.886-1.886-2.644-3.002-.569-.837-1.727-2.332-1.441-3.45-.06.235.48-.565.617-.66.246-.171.446-.144.81-.151,1.169-.022,1.977.497,2.919,1.127,5.701,3.813,11.321,7.739,16.839,11.812,1.044.77,2.679.173,3.284-.861.714-1.22.185-2.512-.861-3.284-5.389-3.978-10.875-7.817-16.44-11.545-2.466-1.652-5.57-2.828-8.477-1.489-3.234,1.489-4.112,5.148-2.855,8.249,1.285,3.169,3.731,5.608,6.188,7.895,2.227,2.072,4.422,4.173,6.673,6.22,4.896,4.452,8.919,9.61,13.268,14.573,4.087,4.664,8.348,9.165,12.493,13.775,2.07,2.302,5.456-1.102,3.394-3.394h0Z"></path><path class="g" d="M27.479,165.538c-3.084-4.329-6.23-8.614-9.304-12.95-1.662-2.345-3.298-4.703-5.012-7.01-1.123-1.511-3.462-4.175-2.573-6.252.243-.568.743-.959,1.32-1.176.433-.163.873-.189,1.331-.167.127.006.387.052.652.154,1.793.687,3.589,2.964,4.92,4.549,2.192,2.611,4.296,5.297,6.42,7.963,3.19,4.005,6.369,8.018,9.515,12.057.797,1.023,2.557.837,3.394,0,1.01-1.01.799-2.368,0-3.394-3.077-3.95-6.186-7.876-9.304-11.793-2.525-3.172-4.99-6.427-7.69-9.455-1.679-1.882-3.653-3.864-6.142-4.601-2.588-.765-5.635.007-7.494,1.973-4.974,5.259.954,11.618,4.011,16.005,3.871,5.554,7.886,11.006,11.813,16.52.751,1.054,2.093,1.557,3.284.861,1.042-.61,1.617-2.222.861-3.284h0Z"></path><path class="g" d="M38.516,159.798c-5.129-7.614-10.003-15.314-14.358-23.394-.782-1.451-1.573-2.898-2.371-4.34-.663-1.198-1.155-2.748-1.087-4.13.005-.107.146-.91.112-.864.253-.335,1.172-.702,1.501-.778.192-.044.276-.024.663.015.292.029.577.08.858.18.561.199,1.043.537,1.483.94.368.338.704.707,1.025,1.091.394.472.526.651.753.955,1.601,2.146,3.134,4.341,4.647,6.549,4.408,6.431,8.422,13.103,12.499,19.745,1.613,2.628,5.767.22,4.145-2.423-3.963-6.455-7.858-12.946-12.13-19.204-1.631-2.39-3.275-4.777-5.017-7.089-1.841-2.443-3.893-4.886-7.099-5.407-3.93-.638-7.834,1.655-8.212,5.822-.26,2.867.948,5.579,2.285,8.024,2.165,3.961,4.155,8.057,6.549,11.887,3.123,4.995,6.319,9.958,9.61,14.844,1.717,2.549,5.877.149,4.145-2.423h0Z"></path><path class="g" d="M70.673,195.564c.01,3.084.532,6.144.667,9.222.055,1.253,1.065,2.46,2.4,2.4,1.253-.056,2.459-1.057,2.4-2.4-.135-3.078-.657-6.138-.667-9.222-.004-1.255-1.101-2.458-2.4-2.4s-2.404,1.055-2.4,2.4h0Z"></path><path class="g" d="M71.523,198.268c4.442-2.758,7.275-6.56,9.29-11.325,2.426-5.738,4.525-11.686,5.709-17.813.565-2.926,1.076-5.876,1.336-8.847.231-2.649.228-5.578-1.776-7.621-1.646-1.678-4.562-1.745-6.678-1-2.693.948-4.021,4.032-5.126,6.431-1.174,2.545-2.182,5.231-3.832,7.521-1.041,1.444-3.05,2.75-4.729,1.265-1.51-1.335-1.628-4.284-1.644-6.124-.017-1.996.781-4.235,2.8-4.984-.054.02.733-.162.549-.139-.207.026.567.052.101-.005.475.058.959.201,1.424.31,1.306.305,2.605.62,3.939.781,2.284.276,4.56-.569,6.021-2.371,1.402-1.727,2.155-4.231,1.445-6.412-.648-1.992-2.788-3.32-4.463-4.368-2.204-1.379-4.593-2.614-6.972-3.657-3.445-1.511-6.753-1.495-10.141.182-2.852,1.411-4.896,3.776-6.895,6.174-.968,1.161-1.883,2.37-2.676,3.659-.474.771-.92,1.56-1.363,2.349-.146.26-.29.522-.438.781-.15.265-.305.527-.462.788-.343.459-.264.451.237-.024h1.276c.683.722.889.903.618.542-.086-.117-.17-.236-.252-.356-.15-.217-.295-.438-.433-.663-1.612-2.629-5.766-.22-4.145,2.423.541.882,1.139,1.892,2.076,2.391,1.715.914,3.428.037,4.451-1.412,1.586-2.248,2.627-4.808,4.395-6.947,1.625-1.966,3.232-4.019,5.498-5.277.963-.534,2.038-.944,3.146-1.009,1.375-.081,2.665.506,3.871,1.102,1.961.969,3.935,1.939,5.791,3.1.813.508,1.477.957,2.136,1.575.084.079.214.273.32.341l-.126-.157c.138.246.131.21-.021-.11.031-.018.044.596.062.428-.16,1.458-1.088,2.359-2.64,2.167-2.161-.268-4.447-1.376-6.73-1.007-2.436.394-4.681,2.173-5.861,4.312-1.4,2.536-1.466,5.316-1.128,8.12.302,2.508,1.04,5.307,3.028,7.034,2.116,1.838,5.097,2.343,7.717,1.367,5.417-2.018,6.895-9.147,9.396-13.69.26-.473.52-.978.856-1.401.203-.256.55-.536.51-.518-.323.143.505-.092.455-.084-.155.024.363-.03.297-.024.32-.025.638.016.956,0,.019,0,.154.236.01-.03.908,1.665.413,3.956.195,5.781-.804,6.731-2.617,13.26-5.016,19.584-.991,2.614-1.981,5.269-3.48,7.644-1.341,2.125-3.178,3.759-5.302,5.077-2.619,1.626-.212,5.78,2.423,4.145h0Z"></path><path class="g" d="M308.519,141.236c-.222,3.284-.444,6.567-.667,9.851-.085,1.255,1.165,2.455,2.4,2.4,1.373-.061,2.309-1.055,2.4-2.4.222-3.284.444-6.567.667-9.851.085-1.255-1.165-2.455-2.4-2.4-1.373.061-2.309,1.055-2.4,2.4h0Z"></path><path class="g" d="M323.102,164.891c3.17-.803,6.365-1.553,9.598-2.059.556-.087,1.163-.639,1.434-1.103.301-.514.429-1.273.242-1.849-.188-.581-.548-1.141-1.103-1.434-.606-.32-1.176-.347-1.849-.242-3.233.506-6.428,1.255-9.598,2.059-1.217.308-2.07,1.736-1.676,2.952.407,1.258,1.648,2.007,2.952,1.676h0Z"></path><path class="g" d="M319.941,156.167c2.203-2.523,4.629-4.861,7.148-7.066.948-.83.912-2.557,0-3.394-1.01-.928-2.383-.885-3.394,0-2.519,2.205-4.944,4.543-7.148,7.066-.422.484-.703,1.038-.703,1.697,0,.589.261,1.292.703,1.697.905.831,2.512,1.01,3.394,0h0Z"></path><path class="g" d="M259.949,168.445c-8.619,1.014-16.919,3.751-23.898,9.027-3.839,2.902-7.14,6.317-10.062,10.134-1.5,1.959-2.93,4.007-4.157,6.149-.869,1.517-1.588,3.116-2.535,4.588-.473.734-.781,1.168-1.452,1.765-.319.284-.208.211-.656.447-.069.036-.633.199-.467.178-1.671.204-2.553-1.28-2.833-2.929-.647-3.807,1.706-8.281,3.474-11.642,3.898-7.411,9.553-13.834,16.626-18.356,7.176-4.588,15.498-7.157,23.983-7.711s17.318.085,25.465,2.777c7.606,2.514,14.274,7.051,19.524,13.089,2.599,2.99,5.417,6.688,6.861,10.243.661,1.627,1.5,3.926,1.498,5.385,0,.716-.075,1.597-.505,2.185-.19.26-.433.425-.726.578-.162.085-.855.253-.693.239-.644.055-1.003-.116-1.616-.505-.563-.357-1.207-1.007-1.749-1.623-1.071-1.217-1.939-2.654-2.884-4.021-2.794-4.039-6.21-7.567-10.104-10.552-7.534-5.776-16.806-9.188-26.29-9.661-2.271-.113-4.544-.035-6.804.215-1.288.142-2.4,1.001-2.4,2.4,0,1.187,1.103,2.543,2.4,2.4,9.688-1.069,19.444,1.335,27.616,6.628,4.104,2.658,7.816,6.07,10.728,10.005,2.43,3.286,4.442,7.438,8.457,9.04,2.111.843,4.52.503,6.371-.807,2.091-1.48,3.048-4.002,2.999-6.521-.084-4.384-2.404-8.745-4.728-12.322-4.987-7.677-11.701-14.211-19.959-18.275s-17.411-5.665-26.546-5.833c-9.661-.178-19.172,1.334-27.941,5.517-8.289,3.954-15.338,10.174-20.519,17.734-2.679,3.909-5.026,8.303-6.504,12.816-1.424,4.347-1.564,11.174,3.252,13.556,4.587,2.268,8.47-.933,10.72-4.755.964-1.637,1.757-3.363,2.766-4.975,1.415-2.262,2.952-4.45,4.67-6.493,5.871-6.981,13.437-11.942,22.309-14.156,2.076-.518,4.186-.908,6.311-1.158,1.287-.151,2.4-.995,2.4-2.4,0-1.18-1.104-2.553-2.4-2.4Z"></path><path class="g" d="M254.043,143.725c.382.309.748.635,1.085.992.171.181.332.368.49.56-.287-.349.127.201.215.34.104.166.203.335.296.507.061.113.115.228.174.342.023.043.16.336.033.058-.126-.276.117.33.142.406.066.201.124.404.175.609.05.202.087.406.129.609.096.461-.024-.41.008.055.029.426.053.847.038,1.275-.007.193-.019.386-.037.578-.007.081-.022.163-.026.243-.012.271.014-.238.032-.239-.013,0-.193.954-.223,1.068-.087.331-.195.653-.309.976-.023.065-.055.129-.075.195-.072.231.107-.258.111-.26-.087.049-.169.364-.222.467-.116.227-.243.448-.383.661-.13.197-.307.368-.046.085-.164.178-.315.366-.487.538-.128.128-.26.252-.396.37-.091.079-.185.155-.278.231.024-.02.35-.225.124-.104-.372.198-.709.462-1.087.654-.184.094-.625.273-.173.098-.17.066-.341.132-.514.191-.433.147-.877.264-1.326.352-.09.018-.65.103-.313.06.352-.045-.309.024-.407.03-.421.027-.844.029-1.264.004-.076-.004-.755-.059-.391-.025.358.033-.295-.056-.377-.072-.395-.082-.784-.189-1.164-.325-.08-.029-.158-.064-.238-.09-.31-.101.383.213.11.041-.138-.087-.3-.148-.443-.229-.168-.094-.325-.204-.489-.302-.036-.021-.267-.181-.049-.026.261.186-.271-.228-.269-.227-.358-.312-.66-.665-.989-1.004-.187-.193.032.047.057.082-.058-.082-.117-.163-.174-.246-.147-.216-.284-.44-.408-.67-.091-.169-.297-.654-.121-.201-.067-.174-.131-.348-.187-.526-.064-.205-.119-.412-.165-.622-.02-.089-.034-.18-.055-.269-.105-.45-.002.301-.002.007,0-.394-.049-.783-.032-1.18.008-.182.036-.364.04-.545-.015.61.017-.084.053-.266.085-.422.198-.839.333-1.248.059-.176.125-.35.188-.524.017-.048.138-.34.02-.058-.136.323.077-.161.107-.224.174-.365.365-.721.571-1.068.111-.186.226-.37.345-.551.06-.091.421-.601.233-.351-.2.267.03-.032.087-.094.08-.086.157-.173.24-.256.166-.168.364-.308.525-.479.174-.186-.103.082-.13.099.128-.082.249-.175.376-.257.181-.117.366-.226.556-.329.22-.119.445-.227.673-.327-.472.207.129-.032.314-.091.461-.147.931-.225,1.401-.332.271-.062-.133.02-.16.021.161-.009.321-.03.482-.039.258-.015.515-.019.773-.012.225.006.45.036.674.043-.574-.017.137.028.312.067.25.055.498.122.741.202.088.029.181.075.272.095.31.067-.464-.241.046.018.465.236.9.498,1.314.817,1,.768,2.73.186,3.284-.861.672-1.272.206-2.463-.861-3.284-3.886-2.988-9.744-2.255-13.392.721-1.73,1.411-2.88,3.612-3.589,5.692-.72,2.112-.874,4.522-.229,6.673,1.406,4.692,5.975,7.627,10.78,7.444,2.218-.085,4.514-.698,6.366-1.951,1.81-1.225,3.065-2.824,3.881-4.832,1.897-4.664.601-10.186-3.331-13.371-.974-.789-2.455-1.023-3.394,0-.804.876-1.042,2.55,0,3.394Z"></path><path class="g" d="M272.52,142.743c.382.309.748.635,1.085.992.171.181.332.368.49.56-.287-.349.127.201.215.34.104.166.203.335.296.507.061.113.115.228.174.342.023.043.16.336.033.058-.126-.276.117.33.142.406.066.201.124.404.175.609.05.202.087.406.129.609.096.461-.024-.41.008.055.029.426.053.847.038,1.275-.007.193-.019.386-.037.578-.007.081-.022.163-.026.243-.012.271.014-.238.032-.239-.013,0-.193.954-.223,1.068-.087.331-.195.653-.309.976-.023.065-.055.129-.075.195-.072.231.107-.258.111-.26-.087.049-.169.364-.222.467-.116.227-.243.448-.383.661-.13.197-.307.368-.046.085-.164.178-.315.366-.487.538-.128.128-.26.252-.396.37-.091.079-.185.155-.278.231.024-.02.35-.225.124-.104-.372.198-.709.462-1.087.654-.184.094-.625.273-.173.098-.17.066-.341.132-.514.191-.433.147-.877.264-1.326.352-.09.018-.65.103-.313.06.352-.045-.309.024-.407.03-.421.027-.844.029-1.264.004-.076-.004-.755-.059-.391-.025.358.033-.295-.056-.377-.072-.395-.082-.784-.189-1.164-.325-.08-.029-.158-.064-.238-.09-.31-.101.383.213.11.041-.138-.087-.3-.148-.443-.229-.168-.094-.325-.204-.489-.302-.036-.021-.267-.181-.049-.026.261.186-.271-.228-.269-.227-.358-.312-.66-.665-.989-1.004-.187-.193.032.047.057.082-.058-.082-.117-.163-.174-.246-.147-.216-.284-.44-.408-.67-.091-.169-.297-.654-.121-.201-.067-.174-.131-.348-.187-.526-.064-.205-.119-.412-.165-.622-.02-.089-.034-.18-.055-.269-.105-.45-.002.301-.002.007,0-.394-.049-.783-.032-1.18.008-.182.036-.364.04-.545-.015.61.017-.084.053-.266.085-.422.198-.839.333-1.248.059-.176.125-.35.188-.524.017-.048.138-.34.02-.058-.136.323.077-.161.107-.224.174-.365.365-.721.571-1.068.111-.186.226-.37.345-.551.06-.091.421-.601.233-.351-.2.267.03-.032.087-.094.08-.086.157-.173.24-.256.166-.168.364-.308.525-.479.174-.186-.103.082-.13.099.128-.082.249-.175.376-.257.181-.117.366-.226.556-.329.22-.119.445-.227.673-.327-.472.207.129-.032.314-.091.461-.147.931-.225,1.401-.332.271-.062-.133.02-.16.021.161-.009.321-.03.482-.039.258-.015.515-.019.773-.012.225.006.45.036.674.043-.574-.017.137.028.312.067.25.055.498.122.741.202.088.029.181.075.272.095.31.067-.464-.241.046.018.465.236.9.498,1.314.817,1,.768,2.73.186,3.284-.861.672-1.272.206-2.463-.861-3.284-3.886-2.988-9.744-2.255-13.392.721-1.73,1.411-2.88,3.612-3.589,5.692-.72,2.112-.874,4.522-.229,6.673,1.406,4.692,5.975,7.627,10.78,7.444,2.218-.085,4.514-.698,6.366-1.951,1.81-1.225,3.065-2.824,3.881-4.832,1.897-4.664.601-10.186-3.331-13.371-.974-.789-2.455-1.023-3.394,0-.804.876-1.042,2.55,0,3.394Z"></path><path class="g" d="M307.753,197.654c3.212,7.864,6.299,16.783,2.81,25.084-.503,1.196.541,2.64,1.676,2.952,1.385.381,2.448-.476,2.952-1.676,3.805-9.053.704-19.033-2.81-27.636-.49-1.199-1.596-2.049-2.952-1.676-1.136.312-2.169,1.745-1.676,2.952h0Z"></path><path class="g" d="M213.895,201.995c-1.326,2.492-1.827,5.234-2.17,8.007-.326,2.632-.589,5.32-.561,7.973.062,5.862,1.785,11.371,5.421,15.988,6.388,8.113,16.771,11.742,26.676,13.01,7.332.938,14.667.739,22.016.154,1.292-.103,2.4-1.029,2.4-2.4,0-1.219-1.101-2.503-2.4-2.4-10.777.858-22.225,1.18-32.499-2.724-8.418-3.199-15.82-9.748-16.69-19.164-.269-2.911-.029-5.819.25-8.719.235-2.449.53-5.099,1.702-7.301,1.45-2.726-2.692-5.154-4.145-2.423h0Z"></path><path class="g" d="M290.317,265.649c.534,1.012,1.083,2.027,1.491,3.097.235.616.44,1.247.59,1.89.062.268.087.572.155.834.004.148.01.296.019.443.073-.42.077-.479.014-.178-.924,2.11-1.823,4.126-3.059,6.097-2.407,3.84-4.791,8.009-8.147,11.011-1.753,1.568-4.166,2.958-6.56,2.049-2.343-.889-3.48-3.381-4.43-5.513-1.148-2.575-2.048-5.258-2.777-7.98-.705-2.632-1.59-5.5-1.789-8.218-.203-2.779-.04-4.647.993-7.173.909-2.223,2.148-4.615,3.913-6.207,2.299-2.073-1.104-5.459-3.394-3.394-1.994,1.798-3.418,4.368-4.499,6.792-1.189,2.666-1.85,5.186-1.86,8.11-.012,3.4.846,6.742,1.662,10.025.825,3.315,1.908,6.534,3.259,9.672,1.295,3.006,2.88,5.995,5.816,7.696,3.139,1.818,6.841,1.533,9.95-.186,5.091-2.815,8.335-8.497,11.371-13.255,1.621-2.541,3.46-5.291,4.18-8.251.794-3.266-1.28-6.995-2.753-9.785-1.442-2.733-5.587-.31-4.145,2.423h0Z"></path><path class="g" d="M276.945,269.715c9.144.85,17.54-3.797,24.289-9.526,3.158-2.68,6.428-5.589,9.041-8.814,1.303-1.608,2.401-3.387,2.724-5.464.161-1.033.127-2.015-.005-3.048-.123-.96-.497-2.241-.264-3.205.161-.666.721-1.112,1.172-1.59.755-.801,1.44-1.673,1.915-2.671.905-1.9,1.275-4.011,1.223-6.109-.101-4.061-1.894-7.382-4.588-10.323-2.852-3.114-5.984-5.944-9.411-8.412-3.321-2.391-6.941-4.856-10.901-6.028-3.614-1.07-8.531-1.066-11.222,2.038-3.045,3.513-.701,8.954,2.882,11.014l2.423-4.145c-2.006-.979-4.218-1.408-6.412-1.728-2.211-.323-4.393-.698-6.539.141-2.356.922-4.268,2.706-4.683,5.289-.468,2.914.831,5.592,2.644,7.788l2.908-3.769c-1.942-1.1-4.121-1.769-6.346-1.203-1.725.439-3.476,1.658-4.355,3.211-2.195,3.878.395,8.823,3.366,11.4l2.908-3.769c-2.824-1.991-6.644-.375-8.189,2.426-1.457,2.642-1.34,5.433-.328,8.182,1.141,3.098,2.778,5.864,4.477,8.68,1.809,2.999,3.689,5.954,5.747,8.79.76,1.047,2.086,1.561,3.284.861,1.034-.605,1.627-2.229.861-3.284-1.565-2.156-3.03-4.379-4.434-6.642-1.42-2.289-3.003-4.599-4.163-7.031-.738-1.548-1.884-3.719-1.815-5.288.034-.764.761-3.52,2.138-2.549,2.214,1.561,4.965-1.985,2.908-3.769-.904-.784-1.812-1.646-2.281-2.775-.301-.725-.653-2.02-.328-2.789.716-1.689,2.919-.989,4.126-.306,2.486,1.408,4.589-1.734,2.908-3.769-.797-.965-1.631-2.463-1.289-3.759.265-1.006,1.607-1.582,2.421-1.67,1.278-.139,2.749.21,4.004.431,1.319.232,3.079.58,4.037,1.048,2.747,1.341,5.132-2.587,2.423-4.145-.912-.524-1.622-1.372-1.826-2.419-.09-.46-.074-.812.105-1.293-.048.129-.066.085.07-.057-.17.179.377-.242.521-.321,2.337-1.274,5.144-.598,7.451.414,3.262,1.432,6.39,3.621,9.21,5.778,2.778,2.124,5.365,4.613,7.678,7.236,1.976,2.242,2.947,4.678,2.791,7.684-.073,1.411-.506,2.858-1.446,3.934-1.243,1.421-2.46,2.606-2.753,4.567-.271,1.815.259,3.528.302,5.332.033,1.396-.606,2.607-1.444,3.693-2.173,2.815-5.063,5.293-7.709,7.654-6.138,5.475-13.693,10.074-22.227,9.28-1.292-.12-2.4,1.189-2.4,2.4,0,1.398,1.104,2.279,2.4,2.4h0Z"></path><path class="g" d="M267.293,234.937c.134.08.261.17.39.258.091.062.398.302.021.01-.378-.294-.04-.03.047.041.427.351.843.713,1.252,1.084,1.06.962,2.083,1.966,3.09,2.983,2.179,2.201,4.304,4.469,6.285,6.85.228.274.454.55.675.829.059.074.43.547.15.188-.275-.353.054.074.117.16.282.381.558.77.785,1.187.601,1.104,2.217,1.549,3.284.861,1.119-.722,1.504-2.103.861-3.284-.54-.992-1.298-1.883-2.003-2.757-.942-1.165-1.933-2.291-2.94-3.4-2.13-2.346-4.333-4.644-6.666-6.789-.91-.837-1.859-1.73-2.924-2.365-1.079-.644-2.682-.278-3.284.861-.612,1.159-.291,2.596.861,3.284h0Z"></path><path class="g" d="M271.934,225.456c3.97,2.344,7.888,4.827,11.634,7.516.593.425.926.702,1.661,1.332.779.668,1.538,1.358,2.284,2.061,1.605,1.514,3.157,3.089,4.612,4.749.855.975,2.52.874,3.394,0,.968-.968.857-2.417,0-3.394-2.801-3.194-5.921-6.262-9.358-8.771-3.778-2.757-7.779-5.262-11.804-7.639-2.666-1.574-5.084,2.574-2.423,4.145h0Z"></path><path class="g" d="M283.801,217.577c1.254.695,2.432,1.529,3.592,2.368.734.531,1.459,1.076,2.178,1.627-.371-.285.233.182.305.238.208.163.416.326.623.49.391.31.78.621,1.167.936,2.886,2.341,5.779,4.767,8.283,7.522.872.96,2.508.886,3.394,0,.955-.955.874-2.432,0-3.394-2.555-2.812-5.514-5.284-8.463-7.668-2.742-2.217-5.561-4.547-8.657-6.264-1.133-.629-2.619-.275-3.284.861-.645,1.103-.276,2.653.861,3.284h0Z"></path></g></g></svg>