<svg id="b" xmlns="http://www.w3.org/2000/svg" width="365.211" height="253.973" viewBox="0 0 365.211 253.973"><defs><style>.g{fill:#211715;}.g,.h,.i,.j{stroke-width:0px;}.h{fill:#fff;}.i{fill:#fcdc4a;}.j{fill:#211715;}</style></defs><g id="c"><g id="d"><path class="h" d="M212.487,164.707c-1.982-1.921-3.97-3.362-6.175-5.022-2.146-1.615-5.4-2.156-8.076-1.92-3.759.331-7.962,5.504-8.138,9.273-.176,3.769.512,7.498,2.364,10.785,4.73,8.394,13.227,15.891,17.323,19.019"></path><path class="h" d="M210.487,132.912c-1.982-1.921-3.97-3.362-6.175-5.022-2.146-1.615-5.4-2.156-8.076-1.92-3.759.331-7.962,5.504-8.138,9.273-.176,3.769.512,7.498,2.364,10.785,4.73,8.394,13.227,15.891,17.323,19.019"></path><path class="h" d="M210.487,102.912c-1.982-1.921-3.97-3.362-6.175-5.022-2.146-1.615-5.4-2.156-8.076-1.92-3.759.331-7.962,5.504-8.138,9.273-.176,3.769.512,7.498,2.364,10.785,4.73,8.394,13.227,15.891,17.323,19.019"></path><path class="h" d="M214.296,195.583c-2.242-1.611-4.418-2.746-6.842-4.067-2.358-1.285-5.657-1.344-8.269-.721-3.67.876-6.455,6.37-6.079,10.125.376,3.754,1.411,6.866,3.723,9.847,5.905,7.613,14.976,14.504,19.484,17.002"></path><path class="h" d="M340.161,163.464c-1.996-2.184-3.87-4.068-5.48-5.453-2.804-2.413-6.848-4.304-11.152-4.163-2.402.079-5.565,1.969-6.548,3.06-3.868,4.294-3.711,9.659-3.137,13.458s2.018,7.438,4.076,10.627c3.711,5.75,6.748,10.498,10.757,16.962v53.631c9.545,0,28.688,0,28.688,0,1.208-8.359,2.306-16.892,3.469-25.791,2.076-15.885,3.655-26.609-1.324-37.009-3.96-6.478-12.398-17.717-19.349-25.321Z"></path><path class="h" d="M14.49,208.959c14.947,0,147.782-.122,155.278-.122-.561-8.029-10.827-151.979-12.384-174.25H2.405c1.149,16.431,11.34,163.709,12.086,174.373"></path><path class="h" d="M298.25,2.405h-91.468c-9.395,0-16.415,8.54-15.678,19.075l14.731,210.662c.737,10.535,8.95,19.075,18.346,19.075h91.468"></path><path class="h" d="M323.847,26.877c-17.537-.001-118.566-.009-122.588-.009,2.234,31.917,11.441,163.574,13.895,198.667,4.384-.006,122.626.004,125.127.004,0,0,.124,0,.365.006-2.452-35.068-11.659-166.724-13.894-198.667h-.362c-.193,0-1.076,0-2.542,0Z"></path><g id="e"><path class="i" d="M326.26,21.48c-.735-10.535-8.926-19.075-18.297-19.075h-91.222c-9.37,0-16.371,8.54-15.636,19.075l.375,5.385c34.847.002,93.138.005,125.155.007l-.376-5.392Z" style="fill: rgb(236, 0, 60);"></path><path class="i" d="M340.491,225.543c-35.143-.002-92.712-.005-125.155-.007l.461,6.606c.735,10.535,8.926,19.075,18.297,19.075h91.222c9.37,0,16.371-8.54,15.636-19.075l-.46-6.599Z" style="fill: rgb(236, 0, 60);"></path></g></g><g id="f"><path class="g" d="M14.49,211.359c6.821,0,13.643-.007,20.464-.012,12.198-.009,24.395-.019,36.593-.029,13.896-.012,27.792-.023,41.688-.035,12.028-.01,24.055-.021,36.083-.03,6.568-.005,13.136-.012,19.704-.015.248,0,.497,0,.745,0,1.23,0,2.491-1.101,2.4-2.4-.427-6.105-.866-12.21-1.301-18.315-.899-12.629-1.798-25.258-2.697-37.886-1.091-15.324-2.182-30.647-3.272-45.971-1.01-14.189-2.019-28.379-3.026-42.568-.655-9.226-1.311-18.452-1.96-27.679-.043-.61-.086-1.221-.128-1.831-.091-1.294-1.026-2.4-2.4-2.4H2.405c-1.23,0-2.491,1.101-2.4,2.4.527,7.533,1.047,15.067,1.57,22.6.938,13.528,1.875,27.057,2.812,40.586,1.077,15.541,2.153,31.083,3.229,46.624.94,13.572,1.88,27.144,2.82,40.716.528,7.621,1.055,15.241,1.586,22.862.023.328.046.657.069.985.09,1.293,1.038,2.4,2.4,2.4,1.229,0,2.491-1.1,2.4-2.4-.463-6.627-.92-13.254-1.38-19.881-.905-13.062-1.81-26.124-2.714-39.186-1.075-15.515-2.149-31.029-3.224-46.544-.969-13.985-1.937-27.97-2.907-41.956-.587-8.474-1.174-16.947-1.765-25.42-.032-.462-.064-.924-.097-1.385l-2.4,2.4h154.98l-2.4-2.4c.583,8.342,1.178,16.684,1.77,25.026.978,13.781,1.958,27.562,2.939,41.343,1.095,15.391,2.191,30.782,3.286,46.173.938,13.172,1.876,26.344,2.813,39.516.507,7.124,1.016,14.248,1.519,21.372.019.273.039.547.058.82l2.4-2.4c-5.65,0-11.299.008-16.949.012-11.595.009-23.191.019-34.786.029-13.862.012-27.725.024-41.587.035-12.56.011-25.12.021-37.679.03-7.671.006-15.341.013-23.012.015-.422,0-.843,0-1.265,0-3.089,0-3.094,4.8,0,4.8h0Z"></path><path class="g" d="M74.517,75.401c-6.082,0-12.165,0-18.247,0-3.84,0-7.679,0-11.519,0-1.861,0-3.904-.278-5.55.768-1.372.872-2.116,2.453-2.091,4.054.028,1.803.254,3.626.379,5.424.263,3.766.527,7.532.79,11.298.372,5.325.599,10.684,1.119,15.997.171,1.744.998,3.342,2.592,4.194,1.854.991,4.292.606,6.319.606,3.814,0,7.628,0,11.442,0,3.393,0,6.787,0,10.18,0,1.324,0,2.648,0,3.972,0,1.37,0,2.907.181,4.25-.126,4.994-1.141,3.396-7.39,3.141-11.035-.29-4.151-.581-8.302-.871-12.454-.241-3.45-.482-6.9-.724-10.35-.104-1.494-.02-3.2-.399-4.652-.591-2.262-2.547-3.546-4.783-3.724-1.509-.12-2.8,1.373-2.8,2.8,0,1.615,1.286,2.679,2.8,2.8-.236-.019-.406-.237-.572-.312-.146-.066-.026-.592-.058.05-.024.475.069.982.102,1.456.085,1.211.169,2.422.254,3.633.204,2.91.407,5.82.61,8.73.235,3.365.471,6.73.706,10.095.124,1.779.249,3.559.373,5.338.057.814.062,1.65.172,2.457.119.874-.071.311.371-.073.254-.22.981-.141.348-.234-1.026-.151-2.207,0-3.242,0-1.279,0-2.558,0-3.837,0-3.031,0-6.062,0-9.093,0-3.459,0-6.917,0-10.376,0-1.647,0-3.295,0-4.942,0h-.498c-.533.003-.664.002-.393-.002-.123-.306.46.315.504.382.02.032.027.604.045.331.11-1.671-.245-3.501-.361-5.168-.23-3.29-.46-6.579-.69-9.869l-1.189-17.003c-.005-.072.02-.527-.041-.582-.01-.009-.251.489-.432.61-.3.2-1.001.06-.011.159.647.065,1.338,0,1.988,0,3.852,0,7.704,0,11.556,0,6.235,0,12.471,0,18.706,0,3.603,0,3.609-5.6,0-5.6Z"></path><path class="g" d="M125.719,75.401c-6.082,0-12.165,0-18.247,0-3.84,0-7.679,0-11.519,0-1.861,0-3.904-.278-5.55.768-1.372.872-2.116,2.453-2.091,4.054.028,1.803.254,3.626.379,5.424.263,3.766.527,7.532.79,11.298.372,5.325.599,10.684,1.119,15.997.171,1.744.998,3.342,2.592,4.194,1.854.991,4.292.606,6.319.606,3.814,0,7.628,0,11.442,0,3.393,0,6.787,0,10.18,0,1.324,0,2.648,0,3.972,0,1.37,0,2.907.181,4.25-.126,4.994-1.141,3.396-7.39,3.141-11.035-.29-4.151-.581-8.302-.871-12.454-.241-3.45-.482-6.9-.724-10.35-.104-1.494-.02-3.2-.399-4.652-.591-2.262-2.547-3.546-4.783-3.724-1.509-.12-2.8,1.373-2.8,2.8,0,1.615,1.286,2.679,2.8,2.8-.236-.019-.406-.237-.572-.312-.146-.066-.026-.592-.058.05-.024.475.069.982.102,1.456.085,1.211.169,2.422.254,3.633.204,2.91.407,5.82.61,8.73.235,3.365.471,6.73.706,10.095.124,1.779.249,3.559.373,5.338.057.814.062,1.65.172,2.457.119.874-.071.311.371-.073.254-.22.981-.141.348-.234-1.026-.151-2.207,0-3.242,0-1.279,0-2.558,0-3.837,0-3.031,0-6.062,0-9.093,0-3.459,0-6.917,0-10.376,0-1.647,0-3.295,0-4.942,0h-.498c-.533.003-.664.002-.393-.002-.123-.306.46.315.504.382.02.032.027.604.045.331.11-1.671-.245-3.501-.361-5.168l-.69-9.869c-.396-5.668-.793-11.336-1.189-17.003-.005-.072.02-.527-.041-.582-.01-.009-.251.489-.432.61-.3.2-1.001.06-.011.159.647.065,1.338,0,1.988,0,3.852,0,7.704,0,11.556,0,6.235,0,12.471,0,18.706,0,3.603,0,3.609-5.6,0-5.6Z"></path><path class="g" d="M78.532,124.738c-6.149,0-12.297,0-18.446,0-3.969,0-7.938,0-11.907,0-1.743,0-3.687-.262-5.277.605-1.512.825-2.366,2.516-2.343,4.204.025,1.836.258,3.693.386,5.524l.786,11.243c.385,5.502.621,11.037,1.156,16.526.17,1.747.993,3.342,2.592,4.197,1.847.987,4.27.606,6.29.606,3.793,0,7.585,0,11.378,0,3.459,0,6.919,0,10.378,0,2.621,0,5.325.19,7.937-.026,2.372-.196,4.204-2.06,4.327-4.45.105-2.037-.267-4.195-.41-6.231-.303-4.34-.607-8.68-.91-13.021-.252-3.598-.503-7.197-.755-10.795-.105-1.496-.02-3.205-.4-4.659-.591-2.262-2.547-3.546-4.783-3.724-1.509-.12-2.8,1.373-2.8,2.8,0,1.615,1.286,2.679,2.8,2.8-.236-.019-.406-.237-.572-.312-.148-.066-.024-.592-.058.051-.025.469.069.991.102,1.459.093,1.332.186,2.664.279,3.996.206,2.94.411,5.879.617,8.819.242,3.467.485,6.935.727,10.402.119,1.708.239,3.417.358,5.125.017.249.259,2.954.207,2.964-.126.025,1.284-1.387.337-.566.415-.36.884-.234.086-.234-5.523,0-11.047,0-16.57,0-3.441,0-6.882,0-10.323,0-1.8,0-3.601.002-5.401,0-.968-.001-.159-.054.114.38.254.403.031.552.045.333.106-1.704-.249-3.559-.368-5.257l-.713-10.191-1.201-17.171c-.005-.07.023-.526-.04-.577.01.008-.26.506-.431.619l-.51.159c.33,0,.659,0,.989,0,.493,0,.986,0,1.48,0,3.981,0,7.963,0,11.944,0,6.3,0,12.601,0,18.901,0,3.603,0,3.609-5.6,0-5.6Z"></path><path class="g" d="M105.167,88.972c2.825,0,6.593,0,9.852,0,1.479,0,2.759,1.195,2.862,2.674.218,3.123.483,6.914.689,9.853.103,1.479-1.012,2.674-2.491,2.674-3.281,0-6.563,0-9.844,0-1.479,0-2.762-1.199-2.865-2.678l-.688-9.844c-.103-1.479,1.007-2.678,2.486-2.678Z"></path><path class="g" d="M53.965,88.972c2.825,0,6.593,0,9.852,0,1.479,0,2.759,1.195,2.862,2.674.218,3.123.483,6.914.689,9.853.103,1.479-1.012,2.674-2.491,2.674-3.281,0-6.563,0-9.844,0-1.479,0-2.762-1.199-2.865-2.678l-.688-9.844c-.103-1.479,1.007-2.678,2.486-2.678Z"></path><path class="g" d="M57.816,137.882c2.764,0,6.387,0,9.554,0,1.561,0,2.913,1.262,3.022,2.823.213,3.04.467,6.684.668,9.553.109,1.561-1.068,2.824-2.628,2.824-3.183,0-6.366,0-9.549,0-1.561,0-2.914-1.265-3.023-2.826l-.668-9.549c-.109-1.561,1.063-2.826,2.624-2.826Z"></path><path class="g" d="M101.997,138.515c1.609,0,2.822-1.301,2.709-2.91-.185-2.652-.416-5.947-.611-8.746-.112-1.609-1.504-2.909-3.113-2.909-2.907,0-6.186,0-8.747,0-1.609,0-2.816,1.304-2.704,2.913l.611,8.738c.112,1.609,1.508,2.913,3.116,2.913,2.913,0,5.826,0,8.738,0ZM118.958,140.76c-.112-1.609-1.504-2.909-3.113-2.909-2.908,0-6.186,0-8.747,0-1.609,0-2.816,1.304-2.704,2.913l.611,8.738c.112,1.609,1.508,2.913,3.116,2.913,2.913,0,5.826,0,8.738,0,1.609,0,2.822-1.301,2.709-2.91-.185-2.652-.416-5.947-.611-8.746ZM120.778,138.515c2.913,0,5.826,0,8.738,0,1.609,0,2.822-1.301,2.709-2.91-.185-2.652-.416-5.947-.611-8.746-.112-1.609-1.504-2.909-3.113-2.909-2.907,0-6.186,0-8.747,0-1.609,0-2.816,1.304-2.704,2.913l.611,8.738c.112,1.609,1.508,2.913,3.116,2.913ZM102.858,150.78c-2.907,0-6.186,0-8.747,0-1.609,0-2.816,1.304-2.704,2.913l.611,8.738c.113,1.609,1.508,2.913,3.116,2.913,2.913,0,5.826,0,8.738,0,1.609,0,2.822-1.301,2.709-2.91-.185-2.652-.416-5.947-.612-8.745-.112-1.609-1.504-2.909-3.113-2.909ZM133.491,153.689c-.112-1.609-1.504-2.909-3.113-2.909-2.907,0-6.186,0-8.747,0-1.609,0-2.816,1.304-2.704,2.913l.611,8.738c.112,1.609,1.508,2.913,3.116,2.913,2.913,0,5.826,0,8.738,0,1.609,0,2.822-1.301,2.709-2.91-.185-2.652-.416-5.947-.611-8.745Z"></path><path class="g" d="M298.246.005h-88.867c-2.167,0-4.304-.038-6.441.43-7.035,1.54-12.241,7.663-13.739,14.549-.97,4.459-.311,9.117.004,13.622.512,7.319,1.023,14.638,1.535,21.958l2.071,29.632c.697,9.976,1.394,19.952,2.092,29.928.532,7.616,1.064,15.231,1.597,22.847.2,2.86.4,5.72.6,8.58.572,8.171,1.144,16.342,1.716,24.513.389,5.552.778,11.104,1.167,16.657.574,8.204,1.148,16.409,1.722,24.613.444,6.34.886,12.68,1.33,19.02.305,4.359.345,8.837,1.972,12.956,2.688,6.805,8.495,12.738,15.928,14,4.186.711,8.65.307,12.879.307h81.837c3.089,0,3.094-4.8,0-4.8h-41.355c-9.327,0-18.654,0-27.981,0h-18.363c-1.781,0-3.645.13-5.418-.084-6.652-.804-11.817-6.534-13.587-12.728-1.052-3.681-.979-7.758-1.244-11.55-.274-3.917-.55-7.833-.822-11.75-.493-7.115-.995-14.229-1.492-21.343-.456-6.52-.913-13.039-1.369-19.559-.496-7.074-.991-14.149-1.486-21.223-.264-3.768-.528-7.537-.791-11.305-.387-5.537-.774-11.075-1.161-16.612-.632-9.046-1.264-18.091-1.896-27.137l-2.12-30.341c-.62-8.871-1.24-17.742-1.86-26.613-.363-5.188-.725-10.376-1.088-15.563-.141-2.024-.284-4.053.081-6.068,1.085-5.987,5.426-11.473,11.782-12.075,3.711-.351,7.554-.056,11.278-.056h81.493c3.089,0,3.094-4.8,0-4.8h0Z"></path><path class="g" d="M271.621,12.624c-5.481,0-10.962-.009-16.443-.01-1.297,0-2.4,1.103-2.4,2.4s1.098,2.4,2.4,2.4c5.481,0,10.962.009,16.443.01,1.297,0,2.4-1.103,2.4-2.4s-1.098-2.4-2.4-2.4h0Z"></path><path class="g" d="M325.948,24.473c-4.304,0-8.608,0-12.912,0-9.696,0-19.391-.002-29.087-.002-11.594,0-23.188-.002-34.782-.003-10.137,0-20.274-.002-30.411-.002-5.18,0-10.373-.108-15.552-.001-.132.003-.263,0-.395,0-3.089,0-3.094,4.8,0,4.8,4.343,0,8.685,0,13.028,0,9.716,0,19.431.002,29.147.002,11.595,0,23.191.002,34.786.003,10.12,0,20.239.002,30.359.002,5.143,0,10.301.117,15.443.001.126-.003.252,0,.378,0,3.089,0,3.094-4.8,0-4.8h0Z"></path><path class="g" d="M340.647,223.145c-4.407,0-8.814,0-13.222,0-9.806,0-19.612-.002-29.417-.002-11.843,0-23.686-.002-35.53-.003-10.245,0-20.489-.002-30.734-.002-5.281,0-10.576-.114-15.856-.001-.135.003-.271,0-.406,0-3.089,0-3.094,4.8,0,4.8,4.446,0,8.892,0,13.338,0,9.826,0,19.651.002,29.477.002,11.844,0,23.689.002,35.533.003,10.227,0,20.454.002,30.681.002,5.244,0,10.503.115,15.747.001.129-.003.259,0,.388,0,3.089,0,3.094-4.8,0-4.8h0Z"></path><path class="g" d="M338.246,223.655c.212,2.65.424,5.299.637,7.949.323,4.032-.372,7.995-2.63,11.409-2.375,3.592-6.315,5.76-10.607,5.802-2.682.026-5.365,0-8.047,0h-21.753c-13.881,0-27.762,0-41.643,0-5.121,0-10.243,0-15.364,0-3.2,0-6.397.228-9.462-.887-6.706-2.438-10.7-9.469-11.178-16.31-.22-3.153-.441-6.305-.661-9.458l-2.729-39.054c-.807-11.544-1.613-23.089-2.42-34.633-.252-3.607-.504-7.213-.757-10.82-.757-10.814-1.513-21.628-2.27-32.442-.992-14.185-1.985-28.37-2.977-42.556-.78-11.146-1.56-22.291-2.339-33.437-.17-2.43-.343-4.859-.51-7.289-.443-6.445,1.992-13.358,8.29-16.12,2.932-1.286,6.229-1.006,9.367-1.006,5.058,0,10.116,0,15.174,0h63.441c2.809,0,5.62-.028,8.429,0,4.437.044,8.404,2.226,11.308,5.507,3.141,3.549,4.428,7.995,4.751,12.614.543,7.759,1.086,15.519,1.628,23.278.933,13.34,1.866,26.68,2.799,40.02.968,13.837,1.936,27.673,2.904,41.51.647,9.249,1.294,18.499,1.941,27.748.092,1.318.184,2.635.277,3.953.09,1.293,1.038,2.4,2.4,2.4,1.229,0,2.491-1.1,2.4-2.4-.376-5.382-.753-10.763-1.129-16.145-.874-12.496-1.748-24.992-2.622-37.488-1.004-14.349-2.008-28.699-3.011-43.048-.768-10.984-1.537-21.968-2.305-32.952l-.529-7.561c-.465-6.647-3.063-13.083-8.28-17.434C317.157,1.793,312.78.021,308.049.005c-2.973-.01-5.945,0-8.918,0h-6.308c-12.56,0-25.12,0-37.679,0-11.695,0-23.391,0-35.086,0-4.415,0-8.66.182-12.548,2.703-6.429,4.171-9.285,11.775-8.773,19.222s1.038,14.839,1.557,22.259l2.872,41.053c.932,13.326,1.865,26.652,2.797,39.979.443,6.337.887,12.674,1.33,19.012.494,7.07.988,14.14,1.482,21.21.983,14.068,1.966,28.136,2.949,42.203.569,8.151,1.085,16.307,1.709,24.454.736,9.621,7.249,19.254,17.177,21.151,2.977.569,6.116.365,9.133.365,12.515,0,25.031,0,37.546,0,11.713,0,23.426,0,35.139,0h8.219c3.24,0,6.615.245,9.765-.662,4.739-1.364,8.723-4.818,10.962-9.188,1.953-3.811,2.64-8.049,2.299-12.296-.209-2.605-.417-5.21-.626-7.815-.103-1.292-1.029-2.4-2.4-2.4-1.218,0-2.504,1.101-2.4,2.4h0Z"></path><path class="g" d="M330.749,196.744c-3.221-5.191-6.494-10.348-9.803-15.483-3.012-4.675-5.147-9.624-5.001-15.175.119-4.552,2.502-9.039,7.25-9.806,2.479-.4,5.317.607,7.443,1.813,1.818,1.032,3.321,2.435,4.796,3.897,6.661,6.604,12.501,14.175,17.897,21.829,1.186,1.682,2.347,3.383,3.449,5.121,1.14,1.797,1.854,3.79,2.416,5.837,1.23,4.479,1.363,9.131,1.123,13.746-.352,6.772-1.394,13.504-2.271,20.222-.966,7.405-1.932,14.809-2.998,22.2-.185,1.281.316,2.579,1.676,2.952,1.127.31,2.766-.385,2.952-1.676,1.033-7.165,1.977-14.343,2.915-21.522.856-6.554,1.846-13.112,2.363-19.704.415-5.299.422-10.673-.733-15.888-.549-2.48-1.378-4.939-2.493-7.224-.933-1.913-2.312-3.696-3.522-5.441-5.802-8.365-12.139-16.668-19.38-23.848-3.97-3.936-8.67-6.986-14.442-7.15-6.02-.172-10.973,4.406-12.563,9.967-1.815,6.348-.031,13.673,3.119,19.288,1.735,3.092,3.819,6.019,5.723,9.01,1.999,3.14,3.977,6.292,5.939,9.455,1.626,2.62,5.78.212,4.145-2.423h0Z"></path><path class="g" d="M260.712,67.166c-5.68,0-11.361,0-17.041,0-3.499,0-6.997,0-10.496,0-1.75,0-3.719-.272-5.3.637-1.427.82-2.213,2.427-2.196,4.037.017,1.641.231,3.305.346,4.942l.737,10.543c.349,4.993.567,10.014,1.049,14.996.161,1.668.936,3.171,2.422,4.029,1.687.974,3.955.637,5.827.637,3.637,0,7.274,0,10.91,0,3.043,0,6.085,0,9.128,0,2.422,0,4.926.178,7.339-.03,2.271-.196,4.077-1.987,4.187-4.298.09-1.893-.241-3.875-.373-5.765-.282-4.037-.565-8.073-.847-12.11-.225-3.218-.45-6.435-.675-9.653-.098-1.402-.022-3.028-.385-4.387-.583-2.184-2.48-3.387-4.632-3.577-1.508-.133-2.8,1.382-2.8,2.8,0,1.626,1.287,2.666,2.8,2.8-.867-.077-.164-.134-.767-.534-.082-.054.06-.547-.008.141-.046.466.07,1.006.103,1.477.087,1.238.173,2.476.26,3.713.189,2.697.377,5.395.566,8.092.217,3.097.433,6.193.65,9.29.114,1.633.228,3.266.343,4.898.011.155.208,2.471.173,2.478.092-.018.459-.737.582-.809.582-.107.659-.15.232-.128-.18,0-.36,0-.539,0-4.962,0-9.923,0-14.885,0-3.215,0-6.431,0-9.646,0-1.507,0-3.18-.194-4.674,0-.925.12-.375-.138.013.157.145.11.422.613.298.777.012-.015-.009-.11-.009-.126-.004-1.631-.23-3.293-.344-4.919l-.644-9.206c-.366-5.234-.732-10.468-1.098-15.702-.008-.108.027-.42-.036-.515.133.202-.809.781-.824.849l-.245.064c.33,0,.66,0,.99,0,.494,0,.988,0,1.482,0,3.663,0,7.325,0,10.988,0,5.68,0,11.361,0,17.041,0,3.603,0,3.609-5.6,0-5.6Z"></path><path class="g" d="M308.4,67.166c-5.68,0-11.361,0-17.041,0-3.499,0-6.997,0-10.496,0-1.75,0-3.719-.272-5.3.637-1.427.82-2.213,2.427-2.196,4.037.017,1.641.231,3.305.346,4.942l.737,10.543c.349,4.993.567,10.014,1.049,14.996.161,1.668.936,3.171,2.422,4.029,1.687.974,3.955.637,5.827.637,3.637,0,7.274,0,10.91,0,3.043,0,6.085,0,9.128,0,2.422,0,4.926.178,7.339-.03,2.271-.196,4.077-1.987,4.187-4.298.09-1.893-.241-3.875-.373-5.765-.282-4.037-.565-8.073-.847-12.11-.225-3.218-.45-6.435-.675-9.653-.098-1.402-.022-3.028-.385-4.387-.583-2.184-2.48-3.387-4.632-3.577-1.508-.133-2.8,1.382-2.8,2.8,0,1.626,1.287,2.666,2.8,2.8-.867-.077-.164-.134-.767-.534-.082-.054.06-.547-.008.141-.046.466.07,1.006.103,1.477.087,1.238.173,2.476.26,3.713.189,2.697.377,5.395.566,8.092.217,3.097.433,6.193.65,9.29.114,1.633.228,3.266.343,4.898.011.155.208,2.471.173,2.478.092-.018.459-.737.582-.809.582-.107.659-.15.232-.128-.18,0-.36,0-.539,0-4.962,0-9.923,0-14.885,0-3.215,0-6.431,0-9.646,0-1.507,0-3.18-.194-4.674,0-.925.12-.375-.138.013.157.145.11.422.613.298.777.012-.015-.009-.11-.009-.126-.004-1.631-.23-3.293-.344-4.919l-.644-9.206c-.366-5.234-.732-10.468-1.098-15.702-.008-.108.027-.42-.036-.515.133.202-.809.781-.824.849l-.245.064c.33,0,.66,0,.99,0,.494,0,.988,0,1.482,0,3.663,0,7.325,0,10.988,0,5.68,0,11.361,0,17.041,0,3.603,0,3.609-5.6,0-5.6Z"></path><path class="g" d="M264.451,113.118c-5.682,0-11.363,0-17.045,0-3.668,0-7.337,0-11.005,0-1.753,0-3.728-.274-5.313.637-1.424.819-2.214,2.428-2.196,4.037.018,1.685.237,3.392.355,5.072l.738,10.552c.358,5.121.573,10.274,1.076,15.383.164,1.668.923,3.163,2.422,4.029,1.702.983,3.965.637,5.842.637,3.655,0,7.311,0,10.966,0,3.194,0,6.387,0,9.581,0,2.423,0,4.927.178,7.342-.03,2.139-.184,3.871-1.771,4.136-3.926.243-1.978-.186-4.172-.325-6.159-.284-4.059-.568-8.118-.851-12.176-.235-3.363-.47-6.725-.705-10.088-.098-1.407-.005-3.033-.385-4.39-.611-2.185-2.459-3.385-4.632-3.577-1.508-.133-2.8,1.382-2.8,2.8,0,1.626,1.287,2.666,2.8,2.8-.871-.077-.16-.134-.768-.534-.143-.094.022-.128-.008.142-.051.463.071,1.01.103,1.479.087,1.238.173,2.476.26,3.714.194,2.771.388,5.542.581,8.313.223,3.187.446,6.375.669,9.562.115,1.64.229,3.279.344,4.919.013.182.073,2.458.174,2.488-.287-.085.733-.752.828-.873.333-.064.328-.086-.015-.064-.18,0-.36,0-.54,0-5.112,0-10.224,0-15.337,0-3.314,0-6.628,0-9.942,0-.739,0-1.478,0-2.217,0-.745,0-1.764-.188-2.481,0-.511.134-.088-.103.26.157.151.113.399.568.298.773.013-.027-.008-.09-.008-.121-.006-1.675-.236-3.381-.353-5.051-.221-3.154-.441-6.308-.662-9.462l-1.106-15.814c-.008-.109.029-.45-.038-.543.151.211-.809.781-.823.85l-.245.064c.331,0,.663,0,.994,0,.496,0,.992,0,1.488,0,3.681,0,7.362,0,11.043,0,5.834,0,11.668,0,17.502,0,3.603,0,3.609-5.6,0-5.6Z"></path><path class="g" d="M289.259,79.997c2.632,0,6.141,0,9.176,0,1.377,0,2.569,1.113,2.666,2.49.203,2.909.45,6.44.642,9.176.096,1.377-.942,2.49-2.32,2.49-3.056,0-6.113,0-9.169,0-1.377,0-2.572-1.117-2.668-2.494l-.641-9.169c-.096-1.377.938-2.494,2.315-2.494Z"></path><path class="g" d="M241.57,79.997c2.632,0,6.141,0,9.176,0,1.377,0,2.569,1.113,2.666,2.49.203,2.909.45,6.44.642,9.176.096,1.377-.942,2.49-2.32,2.49-3.056,0-6.113,0-9.169,0-1.377,0-2.572-1.117-2.668-2.494l-.641-9.169c-.096-1.377.938-2.494,2.315-2.494Z"></path><path class="g" d="M245.157,125.551c2.575,0,5.949,0,8.898,0,1.453,0,2.713,1.176,2.815,2.629.198,2.832.435,6.225.622,8.897.102,1.453-.994,2.63-2.448,2.63-2.964,0-5.929,0-8.893,0-1.453,0-2.714-1.178-2.816-2.632l-.622-8.894c-.102-1.453.99-2.632,2.444-2.632Z"></path><path class="g" d="M286.306,126.141c1.498,0,2.628-1.212,2.523-2.71-.173-2.47-.387-5.539-.57-8.145-.105-1.498-1.401-2.709-2.899-2.709-2.708,0-5.761,0-8.147,0-1.498,0-2.623,1.215-2.518,2.713l.569,8.139c.105,1.498,1.404,2.713,2.903,2.713,2.713,0,5.426,0,8.139,0ZM302.103,128.232c-.105-1.498-1.401-2.709-2.899-2.709-2.708,0-5.761,0-8.147,0-1.498,0-2.623,1.215-2.518,2.713l.569,8.139c.105,1.498,1.404,2.713,2.903,2.713,2.713,0,5.426,0,8.139,0,1.498,0,2.628-1.212,2.523-2.71-.173-2.47-.387-5.539-.57-8.145ZM303.798,126.141c2.713,0,5.426,0,8.139,0,1.498,0,2.628-1.212,2.523-2.71-.173-2.47-.387-5.539-.57-8.145-.105-1.498-1.401-2.709-2.899-2.709-2.708,0-5.761,0-8.147,0-1.498,0-2.623,1.215-2.518,2.713l.569,8.139c.105,1.498,1.404,2.713,2.903,2.713ZM287.108,137.565c-2.708,0-5.761,0-8.147,0-1.498,0-2.623,1.215-2.518,2.713l.569,8.139c.105,1.498,1.404,2.713,2.903,2.713,2.713,0,5.426,0,8.139,0,1.498,0,2.628-1.212,2.523-2.71-.173-2.47-.387-5.539-.57-8.145-.105-1.498-1.401-2.709-2.899-2.709ZM315.638,140.273c-.105-1.498-1.401-2.709-2.899-2.709-2.708,0-5.761,0-8.147,0-1.498,0-2.623,1.215-2.518,2.713l.569,8.139c.105,1.498,1.404,2.713,2.903,2.713,2.713,0,5.426,0,8.139,0,1.498,0,2.628-1.212,2.523-2.71-.173-2.47-.387-5.539-.569-8.145Z"></path><path class="j" d="M200.636,155.365c-3.97-.29-7.219,1.255-9.738,4.322-1.21,1.474-2.203,3.113-2.779,4.94-.61,1.931-.531,4.09-.305,6.078,1.007,8.84,7.398,15.84,13.445,21.887,2.187,2.187,5.582-1.206,3.394-3.394-2.464-2.464-4.877-4.984-6.963-7.784-2.189-2.938-4.173-6.012-4.898-9.652-.608-3.053-.567-5.744,1.236-8.312.754-1.075,1.727-2.06,2.865-2.726,1.226-.717,2.274-.666,3.743-.559,1.294.095,2.4-1.171,2.4-2.4,0-1.378-1.102-2.305-2.4-2.4h0Z"></path><path class="j" d="M198.406,123.555c-1.891-.097-3.662.089-5.372.932-1.595.786-3.018,2.04-4.136,3.41-1.145,1.403-2.069,2.923-2.677,4.636-.646,1.82-.632,3.839-.472,5.741.752,8.942,7.119,16.236,13.259,22.289,2.202,2.171,5.598-1.221,3.394-3.394-2.576-2.539-5.044-5.227-7.165-8.161s-3.99-6.021-4.562-9.667c-.472-3.011-.313-5.499,1.558-7.969.723-.954,1.623-1.83,2.66-2.436,1.178-.689,2.126-.65,3.513-.579,3.087.158,3.079-4.642,0-4.8h0Z"></path><path class="j" d="M196.316,93.575c-3.037,0-5.861,2.351-7.638,4.602-2.233,2.828-3.168,5.86-2.971,9.452.451,8.226,5.632,14.815,11.043,20.624,2.11,2.265,5.499-1.135,3.394-3.394-4.129-4.432-8.743-9.704-9.529-15.943-.333-2.644-.242-4.715,1.217-6.962.894-1.376,2.91-3.579,4.484-3.579,3.089,0,3.094-4.8,0-4.8h0Z"></path><path class="j" d="M202.916,188.025c-2.007-.045-4.201.165-6.014,1.094-1.481.759-2.662,1.992-3.624,3.328-1.805,2.508-2.868,5.797-2.528,8.892.408,3.711,1.524,7.27,3.751,10.306,2.525,3.44,5.568,6.514,8.737,9.357,2.293,2.058,5.699-1.326,3.394-3.394-4.67-4.191-9.754-8.875-10.931-15.3-.437-2.384-.106-4.505,1.167-6.606,1.456-2.403,3.297-2.937,6.046-2.876,3.09.069,3.089-4.731,0-4.8h0Z"></path></g></g></svg>