<svg xmlns="http://www.w3.org/2000/svg" width="272.186" height="399.503" viewBox="0 0 272.186 399.503"><defs><style>.a{fill:#fff;}.b{fill:#fcdc4a;}.c{fill:#211715;}</style></defs><path class="a" d="M60.175,318.514c3.234-3.385,9.8-9.4,11.337-13.82,2.442-7.045,3.5-9.24,5.886-15.4,1.154-2.98,2.6-6.862,4.923-9.054,1.283-1.21,4.111-3.778,6.132-4.247a12.069,12.069,0,0,1,6.646-4.2c1.667-1.834,8.24-3.426,10.222-3.612a11.042,11.042,0,0,1,2.75.04c8.446-3.182,10.808-3.976,16.337-6.881,3.749-1.97,6.772-4.219,10.861-3.116a6.156,6.156,0,0,1,3.048,2.415c1.09,2.691-.165,4.978-2.067,6.726-7.107,6.527-12.469,8.185-17.56,10.884q.242.389.52.821a24.389,24.389,0,0,1,3.18,6.112,36.862,36.862,0,0,1,.838,11.138,74.626,74.626,0,0,1-1.663,9.1,5.4,5.4,0,0,1-2.329,3.394c-1.141,7.119-5.691,12.02-14.248,16.149a77.974,77.974,0,0,1-9.773,3.178c-6.564,5.6-9.5,12.359-12.7,17.2"></path><path class="a" d="M83.087,200.387c1.215-.414,21.174-9.75,21.592-9.9,6.31-2.278,6.061-6.335,6.856-10.874a86.613,86.613,0,0,0,1.258-10.176A58.913,58.913,0,0,1,98.1,156.513a67.107,67.107,0,0,1-12.336-22.667l-1.3.263c-3.119.84-5.5-.824-7.4-2.339a21.721,21.721,0,0,1-5.616-7.37,34.171,34.171,0,0,1-3.483-18.111,11.41,11.41,0,0,1,1.193-4.587,8.063,8.063,0,0,1,5.8-3.854,8.539,8.539,0,0,1,6.833,2l1.477.923c5.326-5.994,28.234-31.26,43.821-44.456.091,1.327,3.613,13.483,4.4,13.887,1.411.727,20.52-14.28,23.238-16.486.586.044,1.172.084,1.754.142,9.977,1,18.225,6.163,24.255,13.966,6.152,7.962,13.091,21.146,14.947,34.969,1.029-.606,1.807-1.062,1.807-1.062a8.543,8.543,0,0,1,6.833-2,8.063,8.063,0,0,1,5.8,3.855,11.4,11.4,0,0,1,1.194,4.587,34.163,34.163,0,0,1-3.484,18.111,21.706,21.706,0,0,1-5.615,7.37c-1.9,1.515-3.806,2.375-6.565,1.535l-1.314-.31c-.54,2-1.136,3.671-1.432,4.57-1.766,4.791-10.9,20.667-22.815,28.67a91.489,91.489,0,0,0,1.308,11.494c.795,4.539.546,8.6,6.856,10.874.418.151,18.315,8.666,18.953,8.929,0,0-22.9,25.765-58.9,25.765S83.087,200.387,83.087,200.387Z"></path><path class="a" d="M210.891,203.106c-7.173-2.984-13.988-5.959-21.3-9.077-8.268,6.767-31.226,13.511-48.138,13.469-18.555-.046-38.427-6.976-48.78-13.88C79.839,198.307,63.685,204.29,52.3,210.743c-12.014,6.485-18.731,17.678-22.878,29.039-11.936,32.691-20.454,62.7-25.484,96.659C1.524,352.729.4,370.711,11.672,384.035a30.666,30.666,0,0,0,16.959,10.384c11.134,2.292,22.107-2.432,31.091-8.958-.042.485-.081.912-.121,1.3-.07.67-.49,5.209-.78,10.339,40.968,0,131.748-.1,161.916-.1-.149-4.1-.327-7.79-.4-9.307a15.525,15.525,0,0,0-.07-1.61c-.08-.8-.17-1.82-.27-3,5.97,4.21,12.29,7.3,19.97,7.8,11.92.78,22.4-7.75,26.25-19.06s4.172-25.31,2.892-37.19c-1.644-20.025-10.18-63.921-13.711-75.151-2.988-9.471-6.03-19.067-10.439-27.923a40.054,40.054,0,0,0-11.729-15.572,82.5,82.5,0,0,0-18.357-11.235Q212.861,203.926,210.891,203.106Z"></path><path class="a" d="M185.641,340.291l26.168-24.27c-5.76-6.961-3.909-15.866-8.935-23.948-3.46-5.563-5.984-10.4-11.641-13.711l-4.7-2.96-2.989,12.114c-10.59-5.921-22.72-13.617-24.96-14.881-3.065-1.73-7.43-2.6-10.084-.769a5.426,5.426,0,0,0-.61,8.053c-5.311-3.257-9.009-2.839-10.311.834-1.186,3.349.1,6.225,7.413,10.512-3.111-1.889-6.3,0-6.63,3.666-.257,2.828,1.556,4.26,4.56,6.681-1.279-1.657-4.326,1.118-4.633,3.188a7,7,0,0,0,1.666,5.576,85.12,85.12,0,0,0,19,17,97.862,97.862,0,0,0,26.561,12.067"></path><path class="a" d="M185.513,339.443c-16.288-4.513-34.22-15.906-44.884-29.02-1.321-1.624-2.651-3.552-2.343-5.623s3.354-4.845,4.633-3.188c-2.857-2.7-4.721-3.991-4.435-6.815.326-3.206,3.6-5.034,6.82-3.357-6.643-4.465-8.793-7.977-7.728-10.687,1.638-4.168,5-4.091,10.311-.834a5.426,5.426,0,0,1,.61-8.053c2.654-1.834,6.659-.871,9.675.944,7.834,4.717,20.139,11.943,30.167,17.951l5.2,3.013"></path><path class="b" d="M73.127,53.258a56.6,56.6,0,0,1,16.656-24.5c-1.118.048-6.437.518-6.629-.206s9.469-12.22,23.621-16.378c7.192-2.113,12.714-3.358,21.19-3.2-1.585-.779-7.032-2.743-7.764-3.949,3.413-2.336,10.746-2.71,14.88-2.608,17.289.427,40.438,8.724,46.333,22.682.707,1,4.954,4.337,6.456,5.387,7.707,2.639,15.984,14.85,18.589,23.185,4.078,13.051,4.412,35.254.115,46.749a7.889,7.889,0,0,0-2.249-.688,8.543,8.543,0,0,0-6.833,2s-.778.456-1.807,1.062c-1.856-13.823-8.8-27.007-14.947-34.969-6.03-7.8-14.278-12.964-24.255-13.966-.582-.058-1.168-.1-1.754-.142C152.011,55.921,132.9,70.928,131.491,70.2c-.785-.4-4.307-12.56-4.4-13.887-15.587,13.2-38.5,38.462-43.821,44.456L81.8,99.847a8.539,8.539,0,0,0-6.833-2c-.2.029-.393.066-.586.109-5.308-3.2-5.627-27.513-2.579-40.161C72.162,56.284,72.607,54.768,73.127,53.258Z" style="fill: rgb(236, 0, 60);"></path><path class="b" d="M140.629,310.423c-1.321-1.624-2.651-3.552-2.343-5.623.284-1.919,2.921-4.437,4.324-3.475-2.675-2.5-4.4-3.81-4.126-6.528.326-3.207,3.6-5.034,6.82-3.357-6.643-4.465-8.793-7.977-7.728-10.687,1.638-4.168,5-4.091,10.311-.834a5.425,5.425,0,0,1,.611-8.053c2.653-1.834,6.658-.871,9.674.944,7.108,4.28,17.893,10.624,27.323,16.251l7.348-50.694a9.551,9.551,0,0,0-8.074-10.811l-37.864-5.488a9.552,9.552,0,0,0-10.812,8.073l-12.1,83.505a9.551,9.551,0,0,0,8.074,10.81l29.923,4.337A88.126,88.126,0,0,1,140.629,310.423Z" style="fill: rgb(236, 0, 60);"></path><path class="c" d="M199.189,103.427a6.05,6.05,0,0,1,8.493.783c1.114,1.482,1.239,3.5,1.323,5.288a30.559,30.559,0,0,1-.336,6.424,31.67,31.67,0,0,1-4.277,11.608c-1.7,2.712-4.512,6.337-8.1,5.344-2.982-.825-4.254,3.805-1.276,4.629,8.816,2.439,14.606-8.031,16.934-14.919a36.075,36.075,0,0,0,1.865-12.865c-.172-4.352-1.226-8.555-5.186-10.945a11.032,11.032,0,0,0-12.833,1.259,2.421,2.421,0,0,0,0,3.394,2.449,2.449,0,0,0,3.394,0Z"></path><path class="c" d="M193.035,128.2a29.355,29.355,0,0,1-1.44,7.532c-.255.839-.532,1.67-.81,2.5-.083.246-.166.491-.254.736-.034.1-.077.19-.112.286-.166.456.243-.544.031-.071a61.21,61.21,0,0,1-3.858,7.142,70.343,70.343,0,0,1-15.172,17.852,28.335,28.335,0,0,1-11.336,5.851c-3.009.691-1.735,5.32,1.276,4.629,8.586-1.971,15.712-8.3,21.292-14.826a76.576,76.576,0,0,0,11.761-17.815,37.372,37.372,0,0,0,3.422-13.816c.1-3.09-4.7-3.086-4.8,0Z"></path><path class="c" d="M83.492,98.15A11.061,11.061,0,0,0,71.63,96.389c-4.141,1.879-5.726,5.834-6.078,10.121-.7,8.559,1.855,18.07,7.48,24.665,2.992,3.508,7.308,6.373,12.075,5.248,3-.709,1.733-5.338-1.276-4.628-3.305.779-6.576-2.714-8.268-5.135a31.405,31.405,0,0,1-5.305-18.381c.051-1.92.1-4.176,1.25-5.808a6.026,6.026,0,0,1,8.59-.927,2.462,2.462,0,0,0,3.394,0,2.421,2.421,0,0,0,0-3.394Z"></path><path class="c" d="M80.789,122.275c2.382,19.243,13.238,38.116,29.761,48.6a40.141,40.141,0,0,0,15.513,5.97,2.479,2.479,0,0,0,2.952-1.676,2.418,2.418,0,0,0-1.676-2.952c-9.455-1.4-17.556-6.794-24.095-13.558a64.919,64.919,0,0,1-15.1-25.246q-.978-3.045-1.672-6.172-.3-1.356-.539-2.725-.12-.686-.224-1.375c-.024-.158-.047-.317-.069-.476q-.037-.266.007.06-.03-.224-.057-.447a2.476,2.476,0,0,0-2.4-2.4,2.415,2.415,0,0,0-2.4,2.4Z"></path><path class="c" d="M152.491,52.014c-5.243,3.737-10.1,7.8-15.213,11.627-2.02,1.509-4.079,2.9-6.2,4.256-.468.3.549-.151.1-.036-.3.077.774-.021.983.037-.24-.067,1.406.652,1.237.9,0,0-.118-.2-.114-.2-.061,0-.41-.957-.089-.16-.521-1.293-.954-2.621-1.375-3.949q-.828-2.613-1.557-5.258c-.2-.732-.4-1.466-.579-2.2-.058-.241-.109-.484-.168-.725-.127-.523-.057-.367-.021.014a2.436,2.436,0,0,0-4.1-1.7c-8.148,6.912-15.708,14.528-23.133,22.2q-9.426,9.741-18.5,19.814-1.249,1.386-2.488,2.781a6.6,6.6,0,0,0-1.452,2.02c-.745,2.06,1.812,3.659,3.526,2.71a2.476,2.476,0,0,0,.522-.411c2.146-2.223-1.244-5.622-3.394-3.394-.166.172-.123-.023.449-.34l3.526,2.711c-.095.263-.966,1.424-.374.771.211-.233.415-.474.623-.709q1.077-1.217,2.164-2.421Q90.6,96.2,94.407,92.1c7.121-7.682,14.367-15.258,21.867-22.573,4.058-3.958,8.192-7.848,12.516-11.516l-4.1-1.7a43.167,43.167,0,0,0,2.181,8.44c.481,1.56.971,3.125,1.565,4.646.49,1.253,1,2.738,2.461,3.13,2.2.59,4.862-1.873,6.476-3.035,3.14-2.262,6.2-4.642,9.256-7.011,2.876-2.227,5.289-4.193,8.282-6.326a2.467,2.467,0,0,0,.861-3.283,2.419,2.419,0,0,0-3.284-.861Z"></path><path class="c" d="M163.948,58.3c6.811,1.786,11.637,6.482,15.709,12.05a77.478,77.478,0,0,1,10.676,20.481,62.481,62.481,0,0,1,3.218,14.312,2.465,2.465,0,0,0,2.4,2.4,2.417,2.417,0,0,0,2.4-2.4,74.333,74.333,0,0,0-8.058-26.575c-3.571-7.017-8.178-14.265-14.284-19.347a27.617,27.617,0,0,0-10.785-5.549c-2.99-.784-4.266,3.844-1.276,4.628Z"></path><path class="c" d="M183.344,23.559c-3.758-8.293-12.227-13.764-20.3-17.252a75.143,75.143,0,0,0-28.5-6.3,51.836,51.836,0,0,0-7.981.51A18.448,18.448,0,0,0,118.99,2.95a2.427,2.427,0,0,0-.861,3.284c1.885,2.678,6.1,3.6,8.624,4.81l1.212-4.472A64.971,64.971,0,0,0,111.2,8.466a58.646,58.646,0,0,0-14.844,5.571,55.366,55.366,0,0,0-10.739,7.934,20.873,20.873,0,0,0-4.5,5.2,2.644,2.644,0,0,0,.4,3.163,4.393,4.393,0,0,0,2.963.986,45.788,45.788,0,0,0,5.3-.168l-1.7-4.1a57.908,57.908,0,0,0-18.1,28.185,69.106,69.106,0,0,0-2.2,13.47,99.682,99.682,0,0,0-.125,14.643c.306,4.48.821,9.128,2.675,13.265a2.417,2.417,0,0,0,3.283.861,2.458,2.458,0,0,0,.861-3.284c-.27-.6.105.285-.045-.106-.067-.173-.133-.346-.2-.52-.119-.334-.226-.672-.327-1.012-.262-.885-.471-1.785-.65-2.69a47.67,47.67,0,0,1-.727-5.506A97.51,97.51,0,0,1,72.461,70.5a69.425,69.425,0,0,1,1.7-12.256A54.208,54.208,0,0,1,91.48,30.451c1.592-1.33.3-4.195-1.7-4.1-1.039.05-2.076.134-3.116.17-.612.022-1.226.037-1.838.014a6.729,6.729,0,0,1-.764-.051q.5.074.135,0-.879-.291,1.027.851l.327,1.211c.03.239-.484,1.205-.159.794.112-.142.536-.771.32-.483-.249.332.087-.108.161-.2.139-.167.278-.333.42-.5.315-.363.64-.718.971-1.067A46.457,46.457,0,0,1,93.24,21.79a50.076,50.076,0,0,1,9.572-5.641,60.88,60.88,0,0,1,11.159-3.412,58.49,58.49,0,0,1,13.994-1.365c2.277.036,3.407-3.42,1.211-4.473-1.3-.626-2.64-1.123-3.917-1.688-.725-.319-1.447-.649-2.145-1.023-.293-.156-.574-.33-.859-.5-.175-.1-.315-.1-.168-.109.1-.007-.06-.119.186.231L121.412,7.1c3.312-2.174,8.194-2.27,12.1-2.294a63.294,63.294,0,0,1,12.707,1.281c8.795,1.747,17.636,4.9,24.883,10.288a24.983,24.983,0,0,1,8.1,9.611,2.418,2.418,0,0,0,3.284.861,2.457,2.457,0,0,0,.861-3.283Z"></path><path class="c" d="M187.5,32.873c4.167,1.842,7.458,5.447,10.1,9.069a43.52,43.52,0,0,1,6.687,12.805c2.838,9.394,3.38,19.649,2.814,29.4a56.434,56.434,0,0,1-2.586,14.945c-1,2.931,3.636,4.189,4.628,1.276a58.66,58.66,0,0,0,2.618-14.19,102.318,102.318,0,0,0-.031-16.338,81.622,81.622,0,0,0-2.511-15.314,46.658,46.658,0,0,0-6.588-13.748c-3.228-4.718-7.355-9.681-12.7-12.046a2.477,2.477,0,0,0-3.283.861,2.418,2.418,0,0,0,.861,3.284Z"></path><path class="c" d="M96.1,197.084c3.032-1.408,6.062-2.823,9.1-4.217A25.482,25.482,0,0,0,108,191.6a10.7,10.7,0,0,0,3.46-3.12c1.448-2.048,1.815-4.525,2.183-6.941.6-3.923,1.266-7.811,1.534-11.777a2.4,2.4,0,1,0-4.8,0c-.236,3.492-.812,6.905-1.341,10.36-.314,2.053-.562,4.38-1.617,5.8-1.114,1.5-3.2,2.134-4.927,2.931q-4.413,2.031-8.817,4.086a2.421,2.421,0,0,0-.861,3.284,2.455,2.455,0,0,0,3.284.861Z"></path><path class="c" d="M189.33,193.059c-2.981-1.412-5.957-2.833-8.945-4.229-1.848-.864-4.054-1.583-5.063-3.216s-1.187-4.078-1.536-6.207a70.867,70.867,0,0,1-1.3-11.315c0-3.089-4.8-3.094-4.8,0a76.823,76.823,0,0,0,1.445,12.447c.427,2.564.642,5.228,2.044,7.5a10.461,10.461,0,0,0,3.18,3.21,14.1,14.1,0,0,0,2.492,1.251l.377.152q.833.32-.089-.056a1.93,1.93,0,0,0,.389.178c3.114,1.5,6.255,2.953,9.38,4.433a2.467,2.467,0,0,0,3.284-.861,2.422,2.422,0,0,0-.861-3.284Z"></path><path class="c" d="M58.674,399.5q14.353,0,28.707-.01,17.67-.011,35.341-.025l36.746-.03q16.715-.014,33.428-.025,12.663-.009,25.325-.013h2.285c3.088,0,3.094-4.8,0-4.8q-11.919,0-23.839.01-16.412.01-32.823.025l-36.6.03q-17.82.013-35.641.025-14.959.011-29.92.013H58.674c-3.089,0-3.094,4.8,0,4.8Z"></path><path class="c" d="M61.221,397.1c.221-3.888.572-7.761.9-11.64a2.41,2.41,0,0,0-2.4-2.4,2.461,2.461,0,0,0-2.4,2.4c-.328,3.879-.679,7.752-.9,11.64a2.415,2.415,0,0,0,2.4,2.4,2.455,2.455,0,0,0,2.4-2.4Z"></path><path class="c" d="M47.961,247.451c2.494,19.759,5.174,39.493,7.6,59.262q.947,7.7,1.867,15.408a2.474,2.474,0,0,0,2.4,2.4,2.415,2.415,0,0,0,2.4-2.4c-2.422-20.4-4.861-40.806-7.655-61.156-.618-4.5-1.246-9-1.815-13.514a2.478,2.478,0,0,0-2.4-2.4,2.413,2.413,0,0,0-2.4,2.4Z"></path><path class="c" d="M217.6,383.081c.4,4.665.569,9.34.74,14.02a2.4,2.4,0,1,0,4.8,0c-.171-4.68-.344-9.355-.74-14.02a2.4,2.4,0,1,0-4.8,0Z"></path><path class="c" d="M222,316.361q2.281-18.228,4.683-36.441,2.1-16.077,4.209-32.151c.371-2.845.757-5.689,1.1-8.538a2.414,2.414,0,0,0-2.4-2.4,2.458,2.458,0,0,0-2.4,2.4c-.824,6.892-1.783,13.769-2.685,20.651q-2.4,18.261-4.763,36.526-1.287,9.975-2.542,19.953a2.413,2.413,0,0,0,2.4,2.4,2.46,2.46,0,0,0,2.4-2.4Z"></path><path class="c" d="M92.812,327.062a45.158,45.158,0,0,0-7.425,8.971c-1.719,2.655-3.209,5.451-4.949,8.092a2.4,2.4,0,0,0,4.145,2.423c1.693-2.571,3.148-5.289,4.811-7.879a39.341,39.341,0,0,1,6.812-8.213,2.4,2.4,0,0,0-3.394-3.394Z"></path><path class="c" d="M116.7,309.355c-1.225,5.3-4.895,9-9.511,11.72q-1.122.66-2.282,1.252c-.374.192-.755.371-1.129.562-.115.058-.579.251-.073.041-1.04.432-2.116.787-3.186,1.139a72.727,72.727,0,0,1-7.353,2.1c-3.018.652-1.741,5.28,1.276,4.629,11.091-2.395,24.073-7.979,26.887-20.163.694-3.006-3.933-4.29-4.629-1.276Z"></path><path class="c" d="M121.92,279.3a83.7,83.7,0,0,0,9.27-4.94,2.4,2.4,0,0,0-2.423-4.145,83.448,83.448,0,0,1-9.27,4.94,2.415,2.415,0,0,0-.861,3.284,2.463,2.463,0,0,0,3.284.861Z"></path><path class="c" d="M110.3,269.946c3.692-1.388,7.41-2.736,11-4.384,1.659-.762,3.292-1.587,4.9-2.454,2.1-1.132,4.1-2.409,6.5-2.792a2.418,2.418,0,0,0,1.676-2.952,2.459,2.459,0,0,0-2.952-1.677,21.243,21.243,0,0,0-6.707,2.765c-1.755.966-3.534,1.89-5.349,2.741-3.253,1.524-6.766,2.783-10.334,4.124a2.468,2.468,0,0,0-1.677,2.953,2.42,2.42,0,0,0,2.953,1.676Z"></path><path class="c" d="M102.846,281.436a33.6,33.6,0,0,1,7.019,10.281c2.045,4.857.9,10.162-.413,15.051-.8,2.986,3.827,4.261,4.629,1.276,1.545-5.755,2.693-12.017.362-17.728a38.534,38.534,0,0,0-8.2-12.274c-2.174-2.2-5.568,1.194-3.394,3.394Z"></path><path class="c" d="M93.846,288.88c2.161,2.491,4.558,5.287,5.837,8.235a9.017,9.017,0,0,1,.415,4.685,65.269,65.269,0,0,1-1.186,6.44,2.46,2.46,0,0,0,1.676,2.953,2.425,2.425,0,0,0,2.953-1.677c.892-4.369,2.473-9.5.706-13.837-1.561-3.831-4.321-7.1-7.007-10.193a2.422,2.422,0,0,0-3.394,0,2.448,2.448,0,0,0,0,3.394Z"></path><path class="c" d="M85.846,296.658c1.46,1.823,3.262,4.183,3.54,6.591.254,2.193-.282,5.146,1.046,7.471,1.223,2.142,3.991,3.163,6.361,3a8.053,8.053,0,0,0,6.319-3.73H98.967c1.757,2.708,4.039,4.862,7.5,4.543s5.966-2.876,7.37-5.914l-4.387-.573c.885,2.558,3.311,3.763,5.855,4.113a7.8,7.8,0,0,0,6.617-2.479c2.073-2.161,2.45-5.466,2.952-8.281a41.64,41.64,0,0,0,.847-9.258,28.612,28.612,0,0,0-1.257-8.306c-1.084-2.977-2.952-5.555-4.591-8.238a27.654,27.654,0,0,0-4.874-5.98c-1.9-1.76-3.938-3.354-6.567-3.745a19.181,19.181,0,0,0-7.908.872c-2.421.671-5.315,1.5-7.124,3.355l1.059-.617a13.3,13.3,0,0,0-7.7,4.815l1.059-.617a13.777,13.777,0,0,0-4.834,2.8,20.945,20.945,0,0,0-3.488,3.342c-2.4,3.052-3.614,6.821-5.016,10.39-1.234,3.139-2.525,6.257-3.7,9.42-.6,1.612-1.162,3.677-1.825,4.989a21.048,21.048,0,0,1-2.607,3.872c-2.436,2.949-5.225,5.57-7.87,8.326-2.139,2.229,1.25,5.628,3.394,3.394,2.892-3.014,5.957-5.87,8.543-9.163a21.123,21.123,0,0,0,3.27-5.344c.849-2.18,1.565-4.414,2.4-6.6,1.522-3.969,3.026-7.98,4.7-11.888a15.893,15.893,0,0,1,3.232-5.28,16.088,16.088,0,0,1,4.531-3.455,8.814,8.814,0,0,0,1.116-.417,7.29,7.29,0,0,0,1.3-1.305,10.791,10.791,0,0,1,2.591-1.886,10.076,10.076,0,0,1,2.068-.746,4.347,4.347,0,0,0,1.452-.9c-.337.25.538-.308.7-.4a22.505,22.505,0,0,1,4.925-1.7c.777-.195,1.558-.358,2.345-.507.135-.025.272-.046.408-.066-.566.081-.259.033-.133.023a13.2,13.2,0,0,1,1.833-.053,6.332,6.332,0,0,1,3.91,1.983,22.1,22.1,0,0,1,3.871,4.228c1.281,1.966,2.553,3.973,3.728,6a15.34,15.34,0,0,1,1.929,5.718,40.817,40.817,0,0,1-1.143,15.522c-.494,2.055-1.008,2.619-3.036,3.531.542-.244.432.008.138-.046a4.269,4.269,0,0,0-.482-.019c-.68-.043.275.064-.16-.024-.25-.05-.5-.1-.743-.174a3.592,3.592,0,0,1-.873-.367c-.109-.051-.248-.22-.212-.117-.608-1.758-3.453-2.595-4.387-.574-.659,1.427-1.649,3.27-3.374,3.549-1.61.26-2.359-.868-3.208-2.178a2.431,2.431,0,0,0-4.145,0,3.2,3.2,0,0,1-3.076,1.353c-1.733-.262-1.668-1.589-1.71-3.184a15.688,15.688,0,0,0-.84-5.932,27.112,27.112,0,0,0-4.1-6.538,2.416,2.416,0,0,0-3.394,0,2.458,2.458,0,0,0,0,3.394Z"></path><path class="c" d="M161.567,326.327l-24.211-3.515c-3.408-.494-7.45-.516-9.68-3.569a7.27,7.27,0,0,1-1.38-4.565c.008-.23.084-1.037.008-.4,0-.018,0-.036.007-.054.013-.105.031-.209.046-.313l.486-3.36,4.2-28.955,2.724-18.8q1.566-10.817,3.136-21.631c.5-3.435.95-6.88,1.494-10.308a7.382,7.382,0,0,1,4.819-6.094,6.979,6.979,0,0,1,2.149-.383c.229,0,.456,0,.684.013.1,0,.821.066.373.02-.265-.028-.155-.021-.094-.013.294.036.586.084.879.127l26.708,3.866c3.29.476,6.582.942,9.871,1.428a7.79,7.79,0,0,1,5.262,2.791,7.132,7.132,0,0,1,1.493,4.217c0,.229,0,.456-.012.685-.006.1-.067.82-.021.372.027-.256.024-.171.017-.113-.01.077-.023.155-.034.233q-1.644,11.254-3.262,22.514l-3.756,25.926-.224,1.544a2.481,2.481,0,0,0,1.677,2.952,2.418,2.418,0,0,0,2.952-1.676l2.981-20.576,4-27.582c.1-.689.2-1.377.3-2.067a12.235,12.235,0,0,0-3.034-10.191c-2.893-3.152-6.648-3.6-10.568-4.165l-29.241-4.233c-3.5-.506-7.253-1.449-10.681-.21a12.044,12.044,0,0,0-7.76,8.753c-.208,1.033-.319,2.091-.47,3.133q-1.829,12.6-3.655,25.206-1.272,8.775-2.543,17.551l-4.268,29.462c-.414,2.856-.838,5.71-1.241,8.568a12.073,12.073,0,0,0,9.964,13.889c8.667,1.3,17.348,2.519,26.022,3.778l2.617.38a2.48,2.48,0,0,0,2.952-1.676,2.419,2.419,0,0,0-1.676-2.953Z"></path><path class="c" d="M155.717,232.572q-3.717-.538-7.435-1.082a2.638,2.638,0,0,0-1.849.242,2.4,2.4,0,0,0-.861,3.284,2.309,2.309,0,0,0,1.434,1.1q3.719.539,7.435,1.082a2.64,2.64,0,0,0,1.85-.242,2.4,2.4,0,0,0,.861-3.284,2.311,2.311,0,0,0-1.435-1.1Z"></path><path class="c" d="M189.607,288.081C182.035,284.1,174.7,279.657,167.4,275.2c-5.235-3.2-11.826-8.584-18.354-6.253a7.544,7.544,0,0,0-4.721,4.938,8.086,8.086,0,0,0,1.864,7.736l2.908-3.769c-2.7-1.619-6.068-3.148-9.279-2.289a7.021,7.021,0,0,0-4.831,5.53c-1.242,5.879,4.419,9.663,8.789,12.249l2.423-4.145a6.634,6.634,0,0,0-9.877,3.734,7.583,7.583,0,0,0,.45,5.839c.991,1.888,2.827,3.237,4.449,4.544,2.369,1.91,5.514-1.061,3.394-3.394-1.681-1.849-4.219-1.28-5.96.109a7.349,7.349,0,0,0-2.831,5.391,10.1,10.1,0,0,0,2.689,6.975c1.546,1.891,3.2,3.7,4.924,5.425a91.233,91.233,0,0,0,25.436,17.875,100.369,100.369,0,0,0,16,6.068c2.98.833,4.252-3.8,1.276-4.629-16.375-4.581-31.7-13.69-42.908-26.556-1.277-1.467-3-3.212-2.606-5.361a2.73,2.73,0,0,1,.741-1.209c.2-.206.57-.447.606-.491-.109.135.136-.12.181-.048.113.178-1.5-.765-.943-.155l3.394-3.394c-1.637-1.319-4.173-2.847-3.857-4.984.278-1.879,1.54-2.432,3.018-1.594,2.692,1.525,5.084-2.57,2.423-4.145a23.4,23.4,0,0,1-5.642-4.232,2.069,2.069,0,0,1-.454-.612c-.114-.194-.227-.383-.326-.585.1.2.071.206,0,0s-.213-1.07-.168-.5a5.82,5.82,0,0,1,0-.952c-.048.555.063-.213.121-.421a3.664,3.664,0,0,1,.322-.824,1.433,1.433,0,0,1,.438-.588,1.5,1.5,0,0,1,.477-.249,3.76,3.76,0,0,1,2.185.126,14.441,14.441,0,0,1,3.519,1.646c2.464,1.479,4.575-1.762,2.908-3.769a3.1,3.1,0,0,1-.309-3.717,1.741,1.741,0,0,1,1.006-.908,4.927,4.927,0,0,1,2.176-.348c2.528.06,4.671,1.289,6.761,2.562,5.537,3.371,11.047,6.782,16.639,10.062,3.734,2.19,7.5,4.336,11.328,6.353,2.731,1.438,5.16-2.7,2.422-4.145Z"></path><path class="c" d="M183.512,299.77c-9.993-6.021-19.761-12.446-29.536-18.813-1.685-1.1-3.375-2.189-5.041-3.316-2.566-1.735-4.971,2.422-2.423,4.145,9.1,6.149,18.413,12,27.7,17.856,2.283,1.44,4.568,2.88,6.88,4.273,2.653,1.6,5.069-2.551,2.423-4.145Z"></path><path class="c" d="M173.549,306.877c-9.525-5.921-18.882-12.12-28.224-18.324-2.581-1.714-4.987,2.442-2.423,4.144,9.343,6.2,18.7,12.4,28.225,18.324,2.631,1.636,5.043-2.515,2.422-4.144Z"></path><path class="c" d="M165.422,314.711a164.843,164.843,0,0,1-21.07-15.032,2.468,2.468,0,0,0-3.394,0,2.419,2.419,0,0,0,0,3.394A172.683,172.683,0,0,0,163,318.856c2.669,1.567,5.087-2.58,2.422-4.145Z"></path><path class="c" d="M190.022,280.435a22.639,22.639,0,0,1,7.067,6.938,48.083,48.083,0,0,1,5.452,9.37c1.315,3.442,1.861,7.091,2.731,10.655a25.7,25.7,0,0,0,4.84,10.32,2.416,2.416,0,0,0,3.394,0,2.456,2.456,0,0,0,0-3.394c-2.255-2.794-3.195-6.288-3.958-9.726a54.7,54.7,0,0,0-3.269-11.251,58.14,58.14,0,0,0-5.785-9.453,27.093,27.093,0,0,0-8.049-7.6c-2.659-1.587-5.076,2.561-2.423,4.145Z"></path><path class="c" d="M24.329,344.752c10.031-9.45,20.23-18.719,30.261-28.169H51.2c8.442,8.855,17.048,17.548,25.56,26.333q3.405,3.515,6.785,7.053a14.44,14.44,0,0,1,2.812,3.28c.6,1.244-.208,2.393-.91,3.419-2.9,4.242-6.764,7.977-10.356,11.626-7.85,7.976-16.021,16.107-26.293,20.891a32.968,32.968,0,0,1-17.513,3.25,27.149,27.149,0,0,1-15.1-7.155c-8.516-7.853-11.41-19.265-11.435-30.5a116.34,116.34,0,0,1,1.382-16.9q1.482-10.23,3.48-20.38A491.024,491.024,0,0,1,32,239.7c3.805-10.15,9.91-19.752,19.27-25.581A124.13,124.13,0,0,1,67.434,206c5.774-2.514,11.651-4.79,17.548-7q4.156-1.555,8.328-3.071l-1.85-.242a79.286,79.286,0,0,0,17.689,8.385,106.662,106.662,0,0,0,22.966,5.258c14.142,1.622,28.619-.68,42.061-5.177,5.985-2,12.156-4.427,17.111-8.431l-2.908.376c6.1,2.6,12.188,5.243,18.3,7.821,5.613,2.367,11.186,4.641,16.4,7.832a59.1,59.1,0,0,1,12.587,9.728c3.883,4.183,6.372,9.268,8.716,14.414,7.3,16.018,11.305,33.184,14.706,50.364,3.328,16.807,6.372,33.716,7.859,50.758,1,11.434.719,23.608-3.165,34.528-3.041,8.55-10.761,15.9-20.02,16.871-11.618,1.217-21.64-6.251-30.019-13.292a287.559,287.559,0,0,1-25.636-24.87q-2.343-2.527-4.667-5.072v3.394c9.153-8.79,18.762-17.108,28.2-25.59q3.782-3.4,7.532-6.83h-3.394c8.743,7.656,16.778,16.088,25.14,24.15,2.224,2.145,5.623-1.245,3.394-3.394-8.362-8.062-16.4-16.494-25.14-24.15a2.462,2.462,0,0,0-3.394,0c-9.569,8.793-19.37,17.329-28.958,26.1-2.278,2.084-4.545,4.18-6.772,6.319a2.444,2.444,0,0,0,0,3.394c7.725,8.426,15.551,16.757,24.02,24.448a147.634,147.634,0,0,0,15.444,12.627,42.484,42.484,0,0,0,15.8,7.029,27.573,27.573,0,0,0,15.87-1.275,29.707,29.707,0,0,0,12.066-9.2c7.181-9.183,8.709-21.857,8.92-33.168.177-9.47-.976-18.953-2.294-28.317-1.309-9.3-2.9-18.554-4.628-27.781-1.569-8.388-3.239-16.765-5.179-25.076a207.827,207.827,0,0,0-7.635-24.855,110.22,110.22,0,0,0-7.838-17.433A44.071,44.071,0,0,0,232.877,212.7a84.416,84.416,0,0,0-14.21-8.816c-6-2.919-12.328-5.264-18.465-7.9q-4.7-2.018-9.4-4.03a2.571,2.571,0,0,0-2.909.375,3.955,3.955,0,0,1-.383.3q-.364.267-.738.521c-.534.364-1.082.707-1.637,1.037-1.248.741-2.538,1.409-3.848,2.031a77.223,77.223,0,0,1-9.32,3.619,109.211,109.211,0,0,1-22.325,4.821c-16.05,1.661-32.863-1.728-47.448-8.526-1.568-.73-3.113-1.509-4.625-2.349q-.971-.54-1.921-1.115A10.39,10.39,0,0,0,93.31,191.3c-1.034-.284-2.094.3-3.046.647q-1.515.555-3.029,1.114-2.93,1.082-5.853,2.186c-8,3.03-15.967,6.206-23.66,9.951-7.091,3.453-13.775,7.4-19.011,13.413a63.777,63.777,0,0,0-11.2,19.441,506.641,506.641,0,0,0-16.6,52.2A378.611,378.611,0,0,0,.673,342.977c-1.735,15.365-.722,32.076,10.376,43.964A32.439,32.439,0,0,0,32.6,397.348c8.3.521,16.486-2.423,23.519-6.629,6.543-3.913,12.168-9.05,17.619-14.33a153.24,153.24,0,0,0,14.586-15.615c1.327-1.7,2.647-3.493,2.972-5.684a7.538,7.538,0,0,0-2-5.95c-2.771-3.407-6.095-6.465-9.15-9.618-5.47-5.646-10.99-11.243-16.466-16.882q-4.569-4.706-9.094-9.451a2.44,2.44,0,0,0-3.394,0c-10.031,9.449-20.23,18.719-30.261,28.169-2.253,2.122,1.146,5.512,3.394,3.394Z"></path><path class="c" d="M128.166,147.728c3.207,3.14,8.3,4.039,12.6,4.036s9.4-.9,12.6-4.036c2.212-2.164-1.184-5.557-3.394-3.394-.1.1-.616.538-.342.321.248-.2-.414.278-.574.376-.282.174-.574.334-.87.483-.2.1-.4.2-.606.284.312-.134-.1.034-.215.077a19.208,19.208,0,0,1-6.6,1.089,18.825,18.825,0,0,1-6.487-1.045,9.7,9.7,0,0,1-1.806-.888c-.24-.148-.467-.312-.7-.473.589.407-.073-.085-.215-.224-2.209-2.162-5.606,1.229-3.394,3.394Z"></path><path class="c" d="M140.33,123.826a52.094,52.094,0,0,1,1.228,5.616l-.086-.638a3.405,3.405,0,0,1,.021.775l.086-.638a1.883,1.883,0,0,1-.086.348l.242-.573a1.314,1.314,0,0,1-.123.224l.376-.485a1.16,1.16,0,0,1-.184.18l.486-.375a3.71,3.71,0,0,1-.445.236l.573-.242a3.2,3.2,0,0,1-.749.218l.638-.085a2.96,2.96,0,0,1-.7,0l.638.086c-.265-.037-.526-.1-.791-.137a2.649,2.649,0,0,0-1.849.242,2.4,2.4,0,0,0-.861,3.283,2.29,2.29,0,0,0,1.434,1.1c.561.076,1.106.22,1.677.245a5.264,5.264,0,0,0,2.417-.567,3.385,3.385,0,0,0,1.907-2.243,5.844,5.844,0,0,0-.027-2.47c-.306-1.809-.724-3.6-1.189-5.377a2.4,2.4,0,0,0-4.629,1.276Z"></path><path class="c" d="M110.43,108.751c-.923,3-.321,9.9,5.364,10.491,7.513-.045,7.913-8.39,5.384-12.315C119.107,103.715,113.018,102.378,110.43,108.751Z"></path><path class="c" d="M170.046,108.751c.923,3,.322,9.9-5.363,10.491-7.514-.045-7.914-8.391-5.385-12.315C161.369,103.714,167.458,102.378,170.046,108.751Z"></path></svg>