<svg xmlns="http://www.w3.org/2000/svg" xmlns:xlink="http://www.w3.org/1999/xlink" width="432" zoomAndPan="magnify" viewBox="0 0 324 323.999988" height="432" preserveAspectRatio="xMidYMid meet" version="1.0"><defs><clipPath id="4488d1a42e"><path d="M 206.519531 223.566406 L 225.96875 223.566406 L 225.96875 254.996094 L 206.519531 254.996094 Z M 206.519531 223.566406 " clip-rule="nonzero"/></clipPath></defs><path fill="#ec003c" d="M 162 0 C 72.671875 0 0 72.671875 0 162 C 0 251.328125 72.671875 324 162 324 C 251.328125 324 324 251.328125 324 162 C 324 72.671875 251.328125 0 162 0 Z M 174.148438 214.648438 C 167.832031 208.332031 167.832031 198.0625 174.148438 191.742188 L 187.691406 178.199219 L 97.199219 178.199219 C 88.257812 178.199219 81 170.941406 81 162 C 81 153.058594 88.257812 145.800781 97.199219 145.800781 L 187.691406 145.800781 L 174.148438 132.257812 C 167.832031 125.9375 167.832031 115.667969 174.148438 109.351562 C 180.46875 103.03125 190.738281 103.03125 197.058594 109.351562 L 238.253906 150.546875 C 244.570312 156.863281 244.570312 167.136719 238.253906 173.453125 L 197.058594 214.648438 C 190.738281 220.96875 180.46875 220.96875 174.148438 214.648438 Z M 174.148438 214.648438 " fill-opacity="1" fill-rule="nonzero"/><g clip-path="url(#4488d1a42e)"><path fill="#ec003c" d="M 206.519531 223.566406 L 225.96875 223.566406 L 225.96875 255.019531 L 206.519531 255.019531 Z M 206.519531 223.566406 " fill-opacity="1" fill-rule="nonzero"/></g></svg>